<?xml version="1.0" encoding="UTF-8" standalone="no"?>
<!DOCTYPE svg PUBLIC "-//W3C//DTD SVG 1.1//EN"
 "http://www.w3.org/Graphics/SVG/1.1/DTD/svg11.dtd">
<!-- Generated by graphviz version 11.0.0 (20240428.1522)
 -->
<!-- Pages: 1 -->
<svg width="1628pt" height="891pt"
 viewBox="0.00 0.00 1628.00 890.68" xmlns="http://www.w3.org/2000/svg" xmlns:xlink="http://www.w3.org/1999/xlink">
<g id="graph0" class="graph" transform="scale(1 1) rotate(0) translate(4 886.68)">
<polygon fill="white" stroke="none" points="-4,4 -4,-886.68 1624,-886.68 1624,4 -4,4"/>
<!-- startevent -->
<g id="node1" class="node">
<title>startevent</title>
<ellipse fill="none" stroke="black" cx="72" cy="-36.68" rx="36.68" ry="36.68"/>
<text text-anchor="middle" x="72" y="-31.25" font-family="Times New Roman,serif" font-size="14.00">startevent</text>
</g>
<!-- EA1 -->
<g id="node2" class="node">
<title>EA1</title>
<path fill="none" stroke="black" d="M348,-72.68C348,-72.68 228,-72.68 228,-72.68 222,-72.68 216,-66.68 216,-60.68 216,-60.68 216,-12.68 216,-12.68 216,-6.68 222,-0.68 228,-0.68 228,-0.68 348,-0.68 348,-0.68 354,-0.68 360,-6.68 360,-12.68 360,-12.68 360,-60.68 360,-60.68 360,-66.68 354,-72.68 348,-72.68"/>
<text text-anchor="middle" x="288" y="-31.25" font-family="Times New Roman,serif" font-size="14.00">EA1</text>
</g>
<!-- startevent&#45;&gt;EA1 -->
<g id="edge1" class="edge">
<title>startevent&#45;&gt;EA1</title>
<path fill="none" stroke="black" d="M109.13,-36C109.13,-36 204.08,-36 204.08,-36"/>
<polygon fill="black" stroke="black" points="204.08,-39.5 214.08,-36 204.08,-32.5 204.08,-39.5"/>
</g>
<!-- EA2 -->
<g id="node3" class="node">
<title>EA2</title>
<path fill="none" stroke="black" d="M564,-72.68C564,-72.68 444,-72.68 444,-72.68 438,-72.68 432,-66.68 432,-60.68 432,-60.68 432,-12.68 432,-12.68 432,-6.68 438,-0.68 444,-0.68 444,-0.68 564,-0.68 564,-0.68 570,-0.68 576,-6.68 576,-12.68 576,-12.68 576,-60.68 576,-60.68 576,-66.68 570,-72.68 564,-72.68"/>
<text text-anchor="middle" x="504" y="-31.25" font-family="Times New Roman,serif" font-size="14.00">EA2</text>
</g>
<!-- EA1&#45;&gt;EA2 -->
<g id="edge2" class="edge">
<title>EA1&#45;&gt;EA2</title>
<path fill="none" stroke="black" d="M360.23,-24C360.23,-24 420.33,-24 420.33,-24"/>
<polygon fill="black" stroke="black" points="420.33,-27.5 430.33,-24 420.33,-20.5 420.33,-27.5"/>
</g>
<!-- EA3 -->
<g id="node4" class="node">
<title>EA3</title>
<path fill="none" stroke="black" d="M780,-72.68C780,-72.68 660,-72.68 660,-72.68 654,-72.68 648,-66.68 648,-60.68 648,-60.68 648,-12.68 648,-12.68 648,-6.68 654,-0.68 660,-0.68 660,-0.68 780,-0.68 780,-0.68 786,-0.68 792,-6.68 792,-12.68 792,-12.68 792,-60.68 792,-60.68 792,-66.68 786,-72.68 780,-72.68"/>
<text text-anchor="middle" x="720" y="-31.25" font-family="Times New Roman,serif" font-size="14.00">EA3</text>
</g>
<!-- EA2&#45;&gt;EA3 -->
<g id="edge3" class="edge">
<title>EA2&#45;&gt;EA3</title>
<path fill="none" stroke="black" d="M576.23,-36C576.23,-36 636.33,-36 636.33,-36"/>
<polygon fill="black" stroke="black" points="636.33,-39.5 646.33,-36 636.33,-32.5 636.33,-39.5"/>
</g>
<!-- EA12 -->
<g id="node5" class="node">
<title>EA12</title>
<path fill="none" stroke="black" d="M348,-792.68C348,-792.68 228,-792.68 228,-792.68 222,-792.68 216,-786.68 216,-780.68 216,-780.68 216,-732.68 216,-732.68 216,-726.68 222,-720.68 228,-720.68 228,-720.68 348,-720.68 348,-720.68 354,-720.68 360,-726.68 360,-732.68 360,-732.68 360,-780.68 360,-780.68 360,-786.68 354,-792.68 348,-792.68"/>
<text text-anchor="middle" x="288" y="-751.25" font-family="Times New Roman,serif" font-size="14.00">EA12</text>
</g>
<!-- EA2&#45;&gt;EA12 -->
<g id="edge4" class="edge">
<title>EA2&#45;&gt;EA12</title>
<path fill="none" stroke="black" stroke-dasharray="5,2" d="M431.66,-48C411.99,-48 396,-48 396,-48 396,-48 396,-744 396,-744 396,-744 371.85,-744 371.85,-744"/>
<polygon fill="black" stroke="black" points="371.85,-740.5 361.85,-744 371.85,-747.5 371.85,-740.5"/>
</g>
<!-- EA4 -->
<g id="node6" class="node">
<title>EA4</title>
<path fill="none" stroke="black" d="M996,-72.68C996,-72.68 876,-72.68 876,-72.68 870,-72.68 864,-66.68 864,-60.68 864,-60.68 864,-12.68 864,-12.68 864,-6.68 870,-0.68 876,-0.68 876,-0.68 996,-0.68 996,-0.68 1002,-0.68 1008,-6.68 1008,-12.68 1008,-12.68 1008,-60.68 1008,-60.68 1008,-66.68 1002,-72.68 996,-72.68"/>
<text text-anchor="middle" x="936" y="-31.25" font-family="Times New Roman,serif" font-size="14.00">EA4</text>
</g>
<!-- EA3&#45;&gt;EA4 -->
<g id="edge5" class="edge">
<title>EA3&#45;&gt;EA4</title>
<path fill="none" stroke="black" d="M792.23,-36C792.23,-36 852.33,-36 852.33,-36"/>
<polygon fill="black" stroke="black" points="852.33,-39.5 862.33,-36 852.33,-32.5 852.33,-39.5"/>
</g>
<!-- EA7 -->
<g id="node7" class="node">
<title>EA7</title>
<path fill="none" stroke="black" d="M132,-432.68C132,-432.68 12,-432.68 12,-432.68 6,-432.68 0,-426.68 0,-420.68 0,-420.68 0,-372.68 0,-372.68 0,-366.68 6,-360.68 12,-360.68 12,-360.68 132,-360.68 132,-360.68 138,-360.68 144,-366.68 144,-372.68 144,-372.68 144,-420.68 144,-420.68 144,-426.68 138,-432.68 132,-432.68"/>
<text text-anchor="middle" x="72" y="-391.25" font-family="Times New Roman,serif" font-size="14.00">EA7</text>
</g>
<!-- EA3&#45;&gt;EA7 -->
<g id="edge6" class="edge">
<title>EA3&#45;&gt;EA7</title>
<path fill="none" stroke="black" stroke-dasharray="5,2" d="M720,-73.17C720,-125.86 720,-217 720,-217 720,-217 126.34,-217 126.34,-217 126.34,-217 126.34,-348.8 126.34,-348.8"/>
<polygon fill="black" stroke="black" points="122.84,-348.81 126.34,-358.81 129.84,-348.81 122.84,-348.81"/>
</g>
<!-- AND_gate_1 -->
<g id="node8" class="node">
<title>AND_gate_1</title>
<polygon fill="none" stroke="black" points="504,-792.68 436.96,-756.68 504,-720.68 571.04,-756.68 504,-792.68"/>
<text text-anchor="middle" x="504" y="-751.25" font-family="Times New Roman,serif" font-size="14.00">AND_gate_1</text>
</g>
<!-- EA12&#45;&gt;AND_gate_1 -->
<g id="edge7" class="edge">
<title>EA12&#45;&gt;AND_gate_1</title>
<path fill="none" stroke="black" d="M360.23,-768C360.23,-768 445.78,-768 445.78,-768"/>
<polygon fill="black" stroke="black" points="445.79,-771.5 455.79,-768 445.79,-764.5 445.79,-771.5"/>
</g>
<!-- EA5 -->
<g id="node9" class="node">
<title>EA5</title>
<path fill="none" stroke="black" d="M1212,-72.68C1212,-72.68 1092,-72.68 1092,-72.68 1086,-72.68 1080,-66.68 1080,-60.68 1080,-60.68 1080,-12.68 1080,-12.68 1080,-6.68 1086,-0.68 1092,-0.68 1092,-0.68 1212,-0.68 1212,-0.68 1218,-0.68 1224,-6.68 1224,-12.68 1224,-12.68 1224,-60.68 1224,-60.68 1224,-66.68 1218,-72.68 1212,-72.68"/>
<text text-anchor="middle" x="1152" y="-31.25" font-family="Times New Roman,serif" font-size="14.00">EA5</text>
</g>
<!-- EA4&#45;&gt;EA5 -->
<g id="edge8" class="edge">
<title>EA4&#45;&gt;EA5</title>
<path fill="none" stroke="black" d="M1008.2,-36C1008.2,-36 1068.3,-36 1068.3,-36"/>
<polygon fill="black" stroke="black" points="1068.29,-39.5 1078.29,-36 1068.29,-32.5 1068.29,-39.5"/>
</g>
<!-- EA8 -->
<g id="node10" class="node">
<title>EA8</title>
<path fill="none" stroke="black" d="M348,-432.68C348,-432.68 228,-432.68 228,-432.68 222,-432.68 216,-426.68 216,-420.68 216,-420.68 216,-372.68 216,-372.68 216,-366.68 222,-360.68 228,-360.68 228,-360.68 348,-360.68 348,-360.68 354,-360.68 360,-366.68 360,-372.68 360,-372.68 360,-420.68 360,-420.68 360,-426.68 354,-432.68 348,-432.68"/>
<text text-anchor="middle" x="288" y="-391.25" font-family="Times New Roman,serif" font-size="14.00">EA8</text>
</g>
<!-- EA7&#45;&gt;EA8 -->
<g id="edge9" class="edge">
<title>EA7&#45;&gt;EA8</title>
<path fill="none" stroke="black" d="M144.23,-396C144.23,-396 204.33,-396 204.33,-396"/>
<polygon fill="black" stroke="black" points="204.33,-399.5 214.33,-396 204.33,-392.5 204.33,-399.5"/>
</g>
<!-- EA15 -->
<g id="node11" class="node">
<title>EA15</title>
<path fill="none" stroke="black" d="M780,-702.68C780,-702.68 660,-702.68 660,-702.68 654,-702.68 648,-696.68 648,-690.68 648,-690.68 648,-642.68 648,-642.68 648,-636.68 654,-630.68 660,-630.68 660,-630.68 780,-630.68 780,-630.68 786,-630.68 792,-636.68 792,-642.68 792,-642.68 792,-690.68 792,-690.68 792,-696.68 786,-702.68 780,-702.68"/>
<text text-anchor="middle" x="720" y="-661.25" font-family="Times New Roman,serif" font-size="14.00">EA15</text>
</g>
<!-- AND_gate_1&#45;&gt;EA15 -->
<g id="edge10" class="edge">
<title>AND_gate_1&#45;&gt;EA15</title>
<path fill="none" stroke="black" d="M504,-720.32C504,-695.09 504,-666 504,-666 504,-666 636.26,-666 636.26,-666"/>
<polygon fill="black" stroke="black" points="636.26,-669.5 646.26,-666 636.26,-662.5 636.26,-669.5"/>
</g>
<!-- EA16 -->
<g id="node12" class="node">
<title>EA16</title>
<path fill="none" stroke="black" d="M780,-882.68C780,-882.68 660,-882.68 660,-882.68 654,-882.68 648,-876.68 648,-870.68 648,-870.68 648,-822.68 648,-822.68 648,-816.68 654,-810.68 660,-810.68 660,-810.68 780,-810.68 780,-810.68 786,-810.68 792,-816.68 792,-822.68 792,-822.68 792,-870.68 792,-870.68 792,-876.68 786,-882.68 780,-882.68"/>
<text text-anchor="middle" x="720" y="-841.25" font-family="Times New Roman,serif" font-size="14.00">EA16</text>
</g>
<!-- AND_gate_1&#45;&gt;EA16 -->
<g id="edge11" class="edge">
<title>AND_gate_1&#45;&gt;EA16</title>
<path fill="none" stroke="black" d="M504,-793.01C504,-817.74 504,-846 504,-846 504,-846 636.26,-846 636.26,-846"/>
<polygon fill="black" stroke="black" points="636.26,-849.5 646.26,-846 636.26,-842.5 636.26,-849.5"/>
</g>
<!-- EA9 -->
<g id="node13" class="node">
<title>EA9</title>
<path fill="none" stroke="black" d="M564,-432.68C564,-432.68 444,-432.68 444,-432.68 438,-432.68 432,-426.68 432,-420.68 432,-420.68 432,-372.68 432,-372.68 432,-366.68 438,-360.68 444,-360.68 444,-360.68 564,-360.68 564,-360.68 570,-360.68 576,-366.68 576,-372.68 576,-372.68 576,-420.68 576,-420.68 576,-426.68 570,-432.68 564,-432.68"/>
<text text-anchor="middle" x="504" y="-391.25" font-family="Times New Roman,serif" font-size="14.00">EA9</text>
</g>
<!-- EA8&#45;&gt;EA9 -->
<g id="edge12" class="edge">
<title>EA8&#45;&gt;EA9</title>
<path fill="none" stroke="black" d="M360.23,-396C360.23,-396 420.33,-396 420.33,-396"/>
<polygon fill="black" stroke="black" points="420.33,-399.5 430.33,-396 420.33,-392.5 420.33,-399.5"/>
</g>
<!-- EA13 -->
<g id="node19" class="node">
<title>EA13</title>
<path fill="none" stroke="black" d="M996,-702.68C996,-702.68 876,-702.68 876,-702.68 870,-702.68 864,-696.68 864,-690.68 864,-690.68 864,-642.68 864,-642.68 864,-636.68 870,-630.68 876,-630.68 876,-630.68 996,-630.68 996,-630.68 1002,-630.68 1008,-636.68 1008,-642.68 1008,-642.68 1008,-690.68 1008,-690.68 1008,-696.68 1002,-702.68 996,-702.68"/>
<text text-anchor="middle" x="936" y="-661.25" font-family="Times New Roman,serif" font-size="14.00">EA13</text>
</g>
<!-- EA15&#45;&gt;EA13 -->
<g id="edge19" class="edge">
<title>EA15&#45;&gt;EA13</title>
<path fill="none" stroke="black" d="M792.23,-666C792.23,-666 852.33,-666 852.33,-666"/>
<polygon fill="black" stroke="black" points="852.33,-669.5 862.33,-666 852.33,-662.5 852.33,-669.5"/>
</g>
<!-- XOR_gate_2 -->
<g id="node16" class="node">
<title>XOR_gate_2</title>
<polygon fill="none" stroke="black" points="1152,-792.68 1084.4,-756.68 1152,-720.68 1219.6,-756.68 1152,-792.68"/>
<text text-anchor="middle" x="1152" y="-751.25" font-family="Times New Roman,serif" font-size="14.00">XOR_gate_2</text>
</g>
<!-- EA16&#45;&gt;XOR_gate_2 -->
<g id="edge20" class="edge">
<title>EA16&#45;&gt;XOR_gate_2</title>
<path fill="none" stroke="black" d="M792.31,-846C915.29,-846 1152,-846 1152,-846 1152,-846 1152,-804.52 1152,-804.52"/>
<polygon fill="black" stroke="black" points="1155.5,-804.52 1152,-794.52 1148.5,-804.52 1155.5,-804.52"/>
</g>
<!-- EA10 -->
<g id="node14" class="node">
<title>EA10</title>
<path fill="none" stroke="black" d="M780,-432.68C780,-432.68 660,-432.68 660,-432.68 654,-432.68 648,-426.68 648,-420.68 648,-420.68 648,-372.68 648,-372.68 648,-366.68 654,-360.68 660,-360.68 660,-360.68 780,-360.68 780,-360.68 786,-360.68 792,-366.68 792,-372.68 792,-372.68 792,-420.68 792,-420.68 792,-426.68 786,-432.68 780,-432.68"/>
<text text-anchor="middle" x="720" y="-391.25" font-family="Times New Roman,serif" font-size="14.00">EA10</text>
</g>
<!-- EA9&#45;&gt;EA10 -->
<g id="edge13" class="edge">
<title>EA9&#45;&gt;EA10</title>
<path fill="none" stroke="black" d="M576.23,-396C576.23,-396 636.33,-396 636.33,-396"/>
<polygon fill="black" stroke="black" points="636.33,-399.5 646.33,-396 636.33,-392.5 636.33,-399.5"/>
</g>
<!-- EA10&#45;&gt;EA12 -->
<g id="edge14" class="edge">
<title>EA10&#45;&gt;EA12</title>
<path fill="none" stroke="black" stroke-dasharray="5,2" d="M720,-433.03C720,-472.81 720,-531 720,-531 720,-531 288,-531 288,-531 288,-531 288,-708.91 288,-708.91"/>
<polygon fill="black" stroke="black" points="284.5,-708.91 288,-718.91 291.5,-708.91 284.5,-708.91"/>
</g>
<!-- EA11 -->
<g id="node15" class="node">
<title>EA11</title>
<path fill="none" stroke="black" d="M996,-432.68C996,-432.68 876,-432.68 876,-432.68 870,-432.68 864,-426.68 864,-420.68 864,-420.68 864,-372.68 864,-372.68 864,-366.68 870,-360.68 876,-360.68 876,-360.68 996,-360.68 996,-360.68 1002,-360.68 1008,-366.68 1008,-372.68 1008,-372.68 1008,-420.68 1008,-420.68 1008,-426.68 1002,-432.68 996,-432.68"/>
<text text-anchor="middle" x="936" y="-391.25" font-family="Times New Roman,serif" font-size="14.00">EA11</text>
</g>
<!-- EA10&#45;&gt;EA11 -->
<g id="edge15" class="edge">
<title>EA10&#45;&gt;EA11</title>
<path fill="none" stroke="black" d="M792.23,-396C792.23,-396 852.33,-396 852.33,-396"/>
<polygon fill="black" stroke="black" points="852.33,-399.5 862.33,-396 852.33,-392.5 852.33,-399.5"/>
</g>
<!-- EA11&#45;&gt;EA4 -->
<g id="edge16" class="edge">
<title>EA11&#45;&gt;EA4</title>
<path fill="none" stroke="black" stroke-dasharray="5,2" d="M936,-360.18C936,-360.18 936,-84.52 936,-84.52"/>
<polygon fill="black" stroke="black" points="939.5,-84.52 936,-74.52 932.5,-84.52 939.5,-84.52"/>
</g>
<!-- EA14 -->
<g id="node17" class="node">
<title>EA14</title>
<path fill="none" stroke="black" d="M1428,-792.68C1428,-792.68 1308,-792.68 1308,-792.68 1302,-792.68 1296,-786.68 1296,-780.68 1296,-780.68 1296,-732.68 1296,-732.68 1296,-726.68 1302,-720.68 1308,-720.68 1308,-720.68 1428,-720.68 1428,-720.68 1434,-720.68 1440,-726.68 1440,-732.68 1440,-732.68 1440,-780.68 1440,-780.68 1440,-786.68 1434,-792.68 1428,-792.68"/>
<text text-anchor="middle" x="1368" y="-751.25" font-family="Times New Roman,serif" font-size="14.00">EA14</text>
</g>
<!-- XOR_gate_2&#45;&gt;EA14 -->
<g id="edge17" class="edge">
<title>XOR_gate_2&#45;&gt;EA14</title>
<path fill="none" stroke="black" d="M1219.2,-756C1219.2,-756 1284.1,-756 1284.1,-756"/>
<polygon fill="black" stroke="black" points="1284.09,-759.5 1294.09,-756 1284.09,-752.5 1284.09,-759.5"/>
</g>
<!-- endevent -->
<g id="node18" class="node">
<title>endevent</title>
<ellipse fill="none" stroke="black" cx="1584" cy="-756.68" rx="36" ry="36"/>
<text text-anchor="middle" x="1584" y="-751.25" font-family="Times New Roman,serif" font-size="14.00">endevent</text>
</g>
<!-- EA14&#45;&gt;endevent -->
<g id="edge18" class="edge">
<title>EA14&#45;&gt;endevent</title>
<path fill="none" stroke="black" d="M1440.2,-756C1440.2,-756 1536.1,-756 1536.1,-756"/>
<polygon fill="black" stroke="black" points="1536.09,-759.5 1546.09,-756 1536.09,-752.5 1536.09,-759.5"/>
</g>
<!-- EA13&#45;&gt;XOR_gate_2 -->
<g id="edge21" class="edge">
<title>EA13&#45;&gt;XOR_gate_2</title>
<path fill="none" stroke="black" d="M1008.2,-666C1071,-666 1152,-666 1152,-666 1152,-666 1152,-708.8 1152,-708.8"/>
<polygon fill="black" stroke="black" points="1148.5,-708.81 1152,-718.81 1155.5,-708.81 1148.5,-708.81"/>
</g>
</g>
</svg>
