<?xml version="1.0" encoding="UTF-8" standalone="no"?>
<!DOCTYPE svg PUBLIC "-//W3C//DTD SVG 1.1//EN"
 "http://www.w3.org/Graphics/SVG/1.1/DTD/svg11.dtd">
<!-- Generated by graphviz version 11.0.0 (20240428.1522)
 -->
<!-- Pages: 1 -->
<svg width="2673pt" height="320pt"
 viewBox="0.00 0.00 2672.70 320.00" xmlns="http://www.w3.org/2000/svg" xmlns:xlink="http://www.w3.org/1999/xlink">
<g id="graph0" class="graph" transform="scale(1 1) rotate(0) translate(4 316)">
<polygon fill="white" stroke="none" points="-4,4 -4,-316 2668.7,-316 2668.7,4 -4,4"/>
<!-- XOR_gate_4 -->
<g id="node1" class="node">
<title>XOR_gate_4</title>
<polygon fill="none" stroke="black" points="2196.7,-192 2129.1,-156 2196.7,-120 2264.3,-156 2196.7,-192"/>
<text text-anchor="middle" x="2196.7" y="-150.57" font-family="Times New Roman,serif" font-size="14.00">XOR_gate_4</text>
</g>
<!-- EV8 -->
<g id="node2" class="node">
<title>EV8</title>
<path fill="none" stroke="black" d="M2472.7,-192C2472.7,-192 2352.7,-192 2352.7,-192 2346.7,-192 2340.7,-186 2340.7,-180 2340.7,-180 2340.7,-132 2340.7,-132 2340.7,-126 2346.7,-120 2352.7,-120 2352.7,-120 2472.7,-120 2472.7,-120 2478.7,-120 2484.7,-126 2484.7,-132 2484.7,-132 2484.7,-180 2484.7,-180 2484.7,-186 2478.7,-192 2472.7,-192"/>
<text text-anchor="middle" x="2412.7" y="-150.57" font-family="Times New Roman,serif" font-size="14.00">EV8</text>
</g>
<!-- XOR_gate_4&#45;&gt;EV8 -->
<g id="edge1" class="edge">
<title>XOR_gate_4&#45;&gt;EV8</title>
<path fill="none" stroke="black" d="M2265.3,-156C2265.3,-156 2329,-156 2329,-156"/>
<polygon fill="black" stroke="black" points="2328.99,-159.5 2338.99,-156 2328.99,-152.5 2328.99,-159.5"/>
</g>
<!-- endevent -->
<g id="node3" class="node">
<title>endevent</title>
<ellipse fill="none" stroke="black" cx="2628.7" cy="-156" rx="36" ry="36"/>
<text text-anchor="middle" x="2628.7" y="-150.57" font-family="Times New Roman,serif" font-size="14.00">endevent</text>
</g>
<!-- EV8&#45;&gt;endevent -->
<g id="edge2" class="edge">
<title>EV8&#45;&gt;endevent</title>
<path fill="none" stroke="black" d="M2484.9,-156C2484.9,-156 2580.8,-156 2580.8,-156"/>
<polygon fill="black" stroke="black" points="2580.79,-159.5 2590.79,-156 2580.79,-152.5 2580.79,-159.5"/>
</g>
<!-- XOR_gate_3 -->
<g id="node4" class="node">
<title>XOR_gate_3</title>
<polygon fill="none" stroke="black" points="900.68,-192 833.08,-156 900.68,-120 968.28,-156 900.68,-192"/>
<text text-anchor="middle" x="900.68" y="-150.57" font-family="Times New Roman,serif" font-size="14.00">XOR_gate_3</text>
</g>
<!-- EV4 -->
<g id="node5" class="node">
<title>EV4</title>
<path fill="none" stroke="black" d="M1176.7,-192C1176.7,-192 1056.7,-192 1056.7,-192 1050.7,-192 1044.7,-186 1044.7,-180 1044.7,-180 1044.7,-132 1044.7,-132 1044.7,-126 1050.7,-120 1056.7,-120 1056.7,-120 1176.7,-120 1176.7,-120 1182.7,-120 1188.7,-126 1188.7,-132 1188.7,-132 1188.7,-180 1188.7,-180 1188.7,-186 1182.7,-192 1176.7,-192"/>
<text text-anchor="middle" x="1116.7" y="-150.57" font-family="Times New Roman,serif" font-size="14.00">EV4</text>
</g>
<!-- XOR_gate_3&#45;&gt;EV4 -->
<g id="edge3" class="edge">
<title>XOR_gate_3&#45;&gt;EV4</title>
<path fill="none" stroke="black" d="M969.32,-156C969.32,-156 1033,-156 1033,-156"/>
<polygon fill="black" stroke="black" points="1032.99,-159.5 1042.99,-156 1032.99,-152.5 1032.99,-159.5"/>
</g>
<!-- EV5 -->
<g id="node6" class="node">
<title>EV5</title>
<path fill="none" stroke="black" d="M1392.7,-192C1392.7,-192 1272.7,-192 1272.7,-192 1266.7,-192 1260.7,-186 1260.7,-180 1260.7,-180 1260.7,-132 1260.7,-132 1260.7,-126 1266.7,-120 1272.7,-120 1272.7,-120 1392.7,-120 1392.7,-120 1398.7,-120 1404.7,-126 1404.7,-132 1404.7,-132 1404.7,-180 1404.7,-180 1404.7,-186 1398.7,-192 1392.7,-192"/>
<text text-anchor="middle" x="1332.7" y="-150.57" font-family="Times New Roman,serif" font-size="14.00">EV5</text>
</g>
<!-- EV4&#45;&gt;EV5 -->
<g id="edge4" class="edge">
<title>EV4&#45;&gt;EV5</title>
<path fill="none" stroke="black" d="M1188.9,-156C1188.9,-156 1249,-156 1249,-156"/>
<polygon fill="black" stroke="black" points="1248.99,-159.5 1258.99,-156 1248.99,-152.5 1248.99,-159.5"/>
</g>
<!-- AND_gate_2 -->
<g id="node7" class="node">
<title>AND_gate_2</title>
<polygon fill="none" stroke="black" points="1548.7,-192 1481.66,-156 1548.7,-120 1615.74,-156 1548.7,-192"/>
<text text-anchor="middle" x="1548.7" y="-150.57" font-family="Times New Roman,serif" font-size="14.00">AND_gate_2</text>
</g>
<!-- EV5&#45;&gt;AND_gate_2 -->
<g id="edge5" class="edge">
<title>EV5&#45;&gt;AND_gate_2</title>
<path fill="none" stroke="black" d="M1404.9,-156C1404.9,-156 1469.4,-156 1469.4,-156"/>
<polygon fill="black" stroke="black" points="1469.39,-159.5 1479.39,-156 1469.39,-152.5 1469.39,-159.5"/>
</g>
<!-- EV6 -->
<g id="node13" class="node">
<title>EV6</title>
<path fill="none" stroke="black" d="M1824.7,-72C1824.7,-72 1704.7,-72 1704.7,-72 1698.7,-72 1692.7,-66 1692.7,-60 1692.7,-60 1692.7,-12 1692.7,-12 1692.7,-6 1698.7,0 1704.7,0 1704.7,0 1824.7,0 1824.7,0 1830.7,0 1836.7,-6 1836.7,-12 1836.7,-12 1836.7,-60 1836.7,-60 1836.7,-66 1830.7,-72 1824.7,-72"/>
<text text-anchor="middle" x="1764.7" y="-30.57" font-family="Times New Roman,serif" font-size="14.00">EV6</text>
</g>
<!-- AND_gate_2&#45;&gt;EV6 -->
<g id="edge12" class="edge">
<title>AND_gate_2&#45;&gt;EV6</title>
<path fill="none" stroke="black" d="M1548.7,-119.57C1548.7,-89.24 1548.7,-51 1548.7,-51 1548.7,-51 1680.9,-51 1680.9,-51"/>
<polygon fill="black" stroke="black" points="1680.99,-54.5 1690.99,-51 1680.99,-47.5 1680.99,-54.5"/>
</g>
<!-- EV9 -->
<g id="node14" class="node">
<title>EV9</title>
<path fill="none" stroke="black" d="M1824.7,-192C1824.7,-192 1704.7,-192 1704.7,-192 1698.7,-192 1692.7,-186 1692.7,-180 1692.7,-180 1692.7,-132 1692.7,-132 1692.7,-126 1698.7,-120 1704.7,-120 1704.7,-120 1824.7,-120 1824.7,-120 1830.7,-120 1836.7,-126 1836.7,-132 1836.7,-132 1836.7,-180 1836.7,-180 1836.7,-186 1830.7,-192 1824.7,-192"/>
<text text-anchor="middle" x="1764.7" y="-150.57" font-family="Times New Roman,serif" font-size="14.00">EV9</text>
</g>
<!-- AND_gate_2&#45;&gt;EV9 -->
<g id="edge13" class="edge">
<title>AND_gate_2&#45;&gt;EV9</title>
<path fill="none" stroke="black" d="M1616.7,-156C1616.7,-156 1681,-156 1681,-156"/>
<polygon fill="black" stroke="black" points="1680.99,-159.5 1690.99,-156 1680.99,-152.5 1680.99,-159.5"/>
</g>
<!-- EV11 -->
<g id="node15" class="node">
<title>EV11</title>
<path fill="none" stroke="black" d="M1824.7,-312C1824.7,-312 1704.7,-312 1704.7,-312 1698.7,-312 1692.7,-306 1692.7,-300 1692.7,-300 1692.7,-252 1692.7,-252 1692.7,-246 1698.7,-240 1704.7,-240 1704.7,-240 1824.7,-240 1824.7,-240 1830.7,-240 1836.7,-246 1836.7,-252 1836.7,-252 1836.7,-300 1836.7,-300 1836.7,-306 1830.7,-312 1824.7,-312"/>
<text text-anchor="middle" x="1764.7" y="-270.57" font-family="Times New Roman,serif" font-size="14.00">EV11</text>
</g>
<!-- AND_gate_2&#45;&gt;EV11 -->
<g id="edge14" class="edge">
<title>AND_gate_2&#45;&gt;EV11</title>
<path fill="none" stroke="black" d="M1548.7,-192.43C1548.7,-222.76 1548.7,-261 1548.7,-261 1548.7,-261 1680.9,-261 1680.9,-261"/>
<polygon fill="black" stroke="black" points="1680.99,-264.5 1690.99,-261 1680.99,-257.5 1680.99,-264.5"/>
</g>
<!-- startevent -->
<g id="node8" class="node">
<title>startevent</title>
<ellipse fill="none" stroke="black" cx="36.68" cy="-156" rx="36.68" ry="36.68"/>
<text text-anchor="middle" x="36.68" y="-150.57" font-family="Times New Roman,serif" font-size="14.00">startevent</text>
</g>
<!-- EV1 -->
<g id="node9" class="node">
<title>EV1</title>
<path fill="none" stroke="black" d="M312.68,-192C312.68,-192 192.68,-192 192.68,-192 186.68,-192 180.68,-186 180.68,-180 180.68,-180 180.68,-132 180.68,-132 180.68,-126 186.68,-120 192.68,-120 192.68,-120 312.68,-120 312.68,-120 318.68,-120 324.68,-126 324.68,-132 324.68,-132 324.68,-180 324.68,-180 324.68,-186 318.68,-192 312.68,-192"/>
<text text-anchor="middle" x="252.68" y="-150.57" font-family="Times New Roman,serif" font-size="14.00">EV1</text>
</g>
<!-- startevent&#45;&gt;EV1 -->
<g id="edge6" class="edge">
<title>startevent&#45;&gt;EV1</title>
<path fill="none" stroke="black" d="M73.81,-156C73.81,-156 168.75,-156 168.75,-156"/>
<polygon fill="black" stroke="black" points="168.76,-159.5 178.76,-156 168.76,-152.5 168.76,-159.5"/>
</g>
<!-- XOR_gate_1 -->
<g id="node10" class="node">
<title>XOR_gate_1</title>
<polygon fill="none" stroke="black" points="468.68,-192 401.08,-156 468.68,-120 536.28,-156 468.68,-192"/>
<text text-anchor="middle" x="468.68" y="-150.57" font-family="Times New Roman,serif" font-size="14.00">XOR_gate_1</text>
</g>
<!-- EV1&#45;&gt;XOR_gate_1 -->
<g id="edge7" class="edge">
<title>EV1&#45;&gt;XOR_gate_1</title>
<path fill="none" stroke="black" d="M324.9,-156C324.9,-156 388.66,-156 388.66,-156"/>
<polygon fill="black" stroke="black" points="388.67,-159.5 398.67,-156 388.67,-152.5 388.67,-159.5"/>
</g>
<!-- EV2 -->
<g id="node11" class="node">
<title>EV2</title>
<path fill="none" stroke="black" d="M744.68,-102C744.68,-102 624.68,-102 624.68,-102 618.68,-102 612.68,-96 612.68,-90 612.68,-90 612.68,-42 612.68,-42 612.68,-36 618.68,-30 624.68,-30 624.68,-30 744.68,-30 744.68,-30 750.68,-30 756.68,-36 756.68,-42 756.68,-42 756.68,-90 756.68,-90 756.68,-96 750.68,-102 744.68,-102"/>
<text text-anchor="middle" x="684.68" y="-60.58" font-family="Times New Roman,serif" font-size="14.00">EV2</text>
</g>
<!-- XOR_gate_1&#45;&gt;EV2 -->
<g id="edge8" class="edge">
<title>XOR_gate_1&#45;&gt;EV2</title>
<path fill="none" stroke="black" d="M468.68,-119.65C468.68,-94.67 468.68,-66 468.68,-66 468.68,-66 600.94,-66 600.94,-66"/>
<polygon fill="black" stroke="black" points="600.94,-69.5 610.94,-66 600.94,-62.5 600.94,-69.5"/>
</g>
<!-- EV3 -->
<g id="node12" class="node">
<title>EV3</title>
<path fill="none" stroke="black" d="M744.68,-282C744.68,-282 624.68,-282 624.68,-282 618.68,-282 612.68,-276 612.68,-270 612.68,-270 612.68,-222 612.68,-222 612.68,-216 618.68,-210 624.68,-210 624.68,-210 744.68,-210 744.68,-210 750.68,-210 756.68,-216 756.68,-222 756.68,-222 756.68,-270 756.68,-270 756.68,-276 750.68,-282 744.68,-282"/>
<text text-anchor="middle" x="684.68" y="-240.57" font-family="Times New Roman,serif" font-size="14.00">EV3</text>
</g>
<!-- XOR_gate_1&#45;&gt;EV3 -->
<g id="edge9" class="edge">
<title>XOR_gate_1&#45;&gt;EV3</title>
<path fill="none" stroke="black" d="M468.68,-192.35C468.68,-217.33 468.68,-246 468.68,-246 468.68,-246 600.94,-246 600.94,-246"/>
<polygon fill="black" stroke="black" points="600.94,-249.5 610.94,-246 600.94,-242.5 600.94,-249.5"/>
</g>
<!-- EV2&#45;&gt;XOR_gate_3 -->
<g id="edge10" class="edge">
<title>EV2&#45;&gt;XOR_gate_3</title>
<path fill="none" stroke="black" d="M756.9,-87C819.7,-87 900.68,-87 900.68,-87 900.68,-87 900.68,-107.97 900.68,-107.97"/>
<polygon fill="black" stroke="black" points="897.18,-107.97 900.68,-117.97 904.18,-107.97 897.18,-107.97"/>
</g>
<!-- EV3&#45;&gt;XOR_gate_3 -->
<g id="edge11" class="edge">
<title>EV3&#45;&gt;XOR_gate_3</title>
<path fill="none" stroke="black" d="M756.9,-225C819.7,-225 900.68,-225 900.68,-225 900.68,-225 900.68,-204.03 900.68,-204.03"/>
<polygon fill="black" stroke="black" points="904.18,-204.03 900.68,-194.03 897.18,-204.03 904.18,-204.03"/>
</g>
<!-- EV7 -->
<g id="node16" class="node">
<title>EV7</title>
<path fill="none" stroke="black" d="M2040.7,-72C2040.7,-72 1920.7,-72 1920.7,-72 1914.7,-72 1908.7,-66 1908.7,-60 1908.7,-60 1908.7,-12 1908.7,-12 1908.7,-6 1914.7,0 1920.7,0 1920.7,0 2040.7,0 2040.7,0 2046.7,0 2052.7,-6 2052.7,-12 2052.7,-12 2052.7,-60 2052.7,-60 2052.7,-66 2046.7,-72 2040.7,-72"/>
<text text-anchor="middle" x="1980.7" y="-30.57" font-family="Times New Roman,serif" font-size="14.00">EV7</text>
</g>
<!-- EV6&#45;&gt;EV7 -->
<g id="edge15" class="edge">
<title>EV6&#45;&gt;EV7</title>
<path fill="none" stroke="black" d="M1836.9,-36C1836.9,-36 1897,-36 1897,-36"/>
<polygon fill="black" stroke="black" points="1896.99,-39.5 1906.99,-36 1896.99,-32.5 1896.99,-39.5"/>
</g>
<!-- EV10 -->
<g id="node17" class="node">
<title>EV10</title>
<path fill="none" stroke="black" d="M2040.7,-192C2040.7,-192 1920.7,-192 1920.7,-192 1914.7,-192 1908.7,-186 1908.7,-180 1908.7,-180 1908.7,-132 1908.7,-132 1908.7,-126 1914.7,-120 1920.7,-120 1920.7,-120 2040.7,-120 2040.7,-120 2046.7,-120 2052.7,-126 2052.7,-132 2052.7,-132 2052.7,-180 2052.7,-180 2052.7,-186 2046.7,-192 2040.7,-192"/>
<text text-anchor="middle" x="1980.7" y="-150.57" font-family="Times New Roman,serif" font-size="14.00">EV10</text>
</g>
<!-- EV9&#45;&gt;EV10 -->
<g id="edge16" class="edge">
<title>EV9&#45;&gt;EV10</title>
<path fill="none" stroke="black" d="M1836.9,-156C1836.9,-156 1897,-156 1897,-156"/>
<polygon fill="black" stroke="black" points="1896.99,-159.5 1906.99,-156 1896.99,-152.5 1896.99,-159.5"/>
</g>
<!-- EV11&#45;&gt;XOR_gate_4 -->
<g id="edge17" class="edge">
<title>EV11&#45;&gt;XOR_gate_4</title>
<path fill="none" stroke="black" d="M1837,-276C1960,-276 2196.7,-276 2196.7,-276 2196.7,-276 2196.7,-203.84 2196.7,-203.84"/>
<polygon fill="black" stroke="black" points="2200.2,-203.84 2196.7,-193.84 2193.2,-203.84 2200.2,-203.84"/>
</g>
<!-- EV7&#45;&gt;XOR_gate_4 -->
<g id="edge18" class="edge">
<title>EV7&#45;&gt;XOR_gate_4</title>
<path fill="none" stroke="black" d="M2052.9,-36C2115.7,-36 2196.7,-36 2196.7,-36 2196.7,-36 2196.7,-108.16 2196.7,-108.16"/>
<polygon fill="black" stroke="black" points="2193.2,-108.16 2196.7,-118.16 2200.2,-108.16 2193.2,-108.16"/>
</g>
<!-- EV10&#45;&gt;XOR_gate_4 -->
<g id="edge19" class="edge">
<title>EV10&#45;&gt;XOR_gate_4</title>
<path fill="none" stroke="black" d="M2052.9,-156C2052.9,-156 2116.7,-156 2116.7,-156"/>
<polygon fill="black" stroke="black" points="2116.69,-159.5 2126.69,-156 2116.69,-152.5 2116.69,-159.5"/>
</g>
</g>
</svg>
