<?xml version="1.0" encoding="UTF-8" standalone="no"?>
<!DOCTYPE svg PUBLIC "-//W3C//DTD SVG 1.1//EN"
 "http://www.w3.org/Graphics/SVG/1.1/DTD/svg11.dtd">
<!-- Generated by graphviz version 2.50.0 (0)
 -->
<!-- Pages: 1 -->
<svg width="2672pt" height="320pt"
 viewBox="0.00 0.00 2672.49 320.00" xmlns="http://www.w3.org/2000/svg" xmlns:xlink="http://www.w3.org/1999/xlink">
<g id="graph0" class="graph" transform="scale(1 1) rotate(0) translate(4 316)">
<polygon fill="white" stroke="transparent" points="-4,4 -4,-316 2668.49,-316 2668.49,4 -4,4"/>
<!-- XOR_gate_4 -->
<g id="node1" class="node">
<title>XOR_gate_4</title>
<polygon fill="none" stroke="black" points="2196.49,-192 2130.66,-156 2196.49,-120 2262.32,-156 2196.49,-192"/>
<text text-anchor="middle" x="2196.49" y="-152.3" font-family="Times New Roman,serif" font-size="14.00">XOR_gate_4</text>
</g>
<!-- EV8 -->
<g id="node2" class="node">
<title>EV8</title>
<path fill="none" stroke="black" d="M2472.49,-192C2472.49,-192 2352.49,-192 2352.49,-192 2346.49,-192 2340.49,-186 2340.49,-180 2340.49,-180 2340.49,-132 2340.49,-132 2340.49,-126 2346.49,-120 2352.49,-120 2352.49,-120 2472.49,-120 2472.49,-120 2478.49,-120 2484.49,-126 2484.49,-132 2484.49,-132 2484.49,-180 2484.49,-180 2484.49,-186 2478.49,-192 2472.49,-192"/>
<text text-anchor="middle" x="2412.49" y="-152.3" font-family="Times New Roman,serif" font-size="14.00">EV8</text>
</g>
<!-- XOR_gate_4&#45;&gt;EV8 -->
<g id="edge1" class="edge">
<title>XOR_gate_4&#45;&gt;EV8</title>
<path fill="none" stroke="black" d="M2262.19,-156C2262.19,-156 2330.39,-156 2330.39,-156"/>
<polygon fill="black" stroke="black" points="2330.39,-159.5 2340.39,-156 2330.39,-152.5 2330.39,-159.5"/>
</g>
<!-- endevent -->
<g id="node3" class="node">
<title>endevent</title>
<ellipse fill="none" stroke="black" cx="2628.49" cy="-156" rx="36" ry="36"/>
<text text-anchor="middle" x="2628.49" y="-152.3" font-family="Times New Roman,serif" font-size="14.00">endevent</text>
</g>
<!-- EV8&#45;&gt;endevent -->
<g id="edge2" class="edge">
<title>EV8&#45;&gt;endevent</title>
<path fill="none" stroke="black" d="M2484.69,-156C2484.69,-156 2582.39,-156 2582.39,-156"/>
<polygon fill="black" stroke="black" points="2582.39,-159.5 2592.39,-156 2582.39,-152.5 2582.39,-159.5"/>
</g>
<!-- XOR_gate_3 -->
<g id="node4" class="node">
<title>XOR_gate_3</title>
<polygon fill="none" stroke="black" points="900.5,-192 834.67,-156 900.5,-120 966.33,-156 900.5,-192"/>
<text text-anchor="middle" x="900.5" y="-152.3" font-family="Times New Roman,serif" font-size="14.00">XOR_gate_3</text>
</g>
<!-- EV4 -->
<g id="node5" class="node">
<title>EV4</title>
<path fill="none" stroke="black" d="M1176.49,-192C1176.49,-192 1056.49,-192 1056.49,-192 1050.49,-192 1044.49,-186 1044.49,-180 1044.49,-180 1044.49,-132 1044.49,-132 1044.49,-126 1050.49,-120 1056.49,-120 1056.49,-120 1176.49,-120 1176.49,-120 1182.49,-120 1188.49,-126 1188.49,-132 1188.49,-132 1188.49,-180 1188.49,-180 1188.49,-186 1182.49,-192 1176.49,-192"/>
<text text-anchor="middle" x="1116.49" y="-152.3" font-family="Times New Roman,serif" font-size="14.00">EV4</text>
</g>
<!-- XOR_gate_3&#45;&gt;EV4 -->
<g id="edge3" class="edge">
<title>XOR_gate_3&#45;&gt;EV4</title>
<path fill="none" stroke="black" d="M966.18,-156C966.18,-156 1034.39,-156 1034.39,-156"/>
<polygon fill="black" stroke="black" points="1034.39,-159.5 1044.39,-156 1034.39,-152.5 1034.39,-159.5"/>
</g>
<!-- EV5 -->
<g id="node6" class="node">
<title>EV5</title>
<path fill="none" stroke="black" d="M1392.49,-192C1392.49,-192 1272.49,-192 1272.49,-192 1266.49,-192 1260.49,-186 1260.49,-180 1260.49,-180 1260.49,-132 1260.49,-132 1260.49,-126 1266.49,-120 1272.49,-120 1272.49,-120 1392.49,-120 1392.49,-120 1398.49,-120 1404.49,-126 1404.49,-132 1404.49,-132 1404.49,-180 1404.49,-180 1404.49,-186 1398.49,-192 1392.49,-192"/>
<text text-anchor="middle" x="1332.49" y="-152.3" font-family="Times New Roman,serif" font-size="14.00">EV5</text>
</g>
<!-- EV4&#45;&gt;EV5 -->
<g id="edge4" class="edge">
<title>EV4&#45;&gt;EV5</title>
<path fill="none" stroke="black" d="M1188.69,-156C1188.69,-156 1250.39,-156 1250.39,-156"/>
<polygon fill="black" stroke="black" points="1250.39,-159.5 1260.39,-156 1250.39,-152.5 1250.39,-159.5"/>
</g>
<!-- AND_gate_2 -->
<g id="node7" class="node">
<title>AND_gate_2</title>
<polygon fill="none" stroke="black" points="1548.49,-192 1481.99,-156 1548.49,-120 1614.99,-156 1548.49,-192"/>
<text text-anchor="middle" x="1548.49" y="-152.3" font-family="Times New Roman,serif" font-size="14.00">AND_gate_2</text>
</g>
<!-- EV5&#45;&gt;AND_gate_2 -->
<g id="edge5" class="edge">
<title>EV5&#45;&gt;AND_gate_2</title>
<path fill="none" stroke="black" d="M1404.69,-156C1404.69,-156 1472.19,-156 1472.19,-156"/>
<polygon fill="black" stroke="black" points="1472.19,-159.5 1482.19,-156 1472.19,-152.5 1472.19,-159.5"/>
</g>
<!-- EV6 -->
<g id="node13" class="node">
<title>EV6</title>
<path fill="none" stroke="black" d="M1824.49,-72C1824.49,-72 1704.49,-72 1704.49,-72 1698.49,-72 1692.49,-66 1692.49,-60 1692.49,-60 1692.49,-12 1692.49,-12 1692.49,-6 1698.49,0 1704.49,0 1704.49,0 1824.49,0 1824.49,0 1830.49,0 1836.49,-6 1836.49,-12 1836.49,-12 1836.49,-60 1836.49,-60 1836.49,-66 1830.49,-72 1824.49,-72"/>
<text text-anchor="middle" x="1764.49" y="-32.3" font-family="Times New Roman,serif" font-size="14.00">EV6</text>
</g>
<!-- AND_gate_2&#45;&gt;EV6 -->
<g id="edge12" class="edge">
<title>AND_gate_2&#45;&gt;EV6</title>
<path fill="none" stroke="black" d="M1548.49,-119.86C1548.49,-89.49 1548.49,-51 1548.49,-51 1548.49,-51 1682.29,-51 1682.29,-51"/>
<polygon fill="black" stroke="black" points="1682.29,-54.5 1692.29,-51 1682.29,-47.5 1682.29,-54.5"/>
</g>
<!-- EV9 -->
<g id="node14" class="node">
<title>EV9</title>
<path fill="none" stroke="black" d="M1824.49,-192C1824.49,-192 1704.49,-192 1704.49,-192 1698.49,-192 1692.49,-186 1692.49,-180 1692.49,-180 1692.49,-132 1692.49,-132 1692.49,-126 1698.49,-120 1704.49,-120 1704.49,-120 1824.49,-120 1824.49,-120 1830.49,-120 1836.49,-126 1836.49,-132 1836.49,-132 1836.49,-180 1836.49,-180 1836.49,-186 1830.49,-192 1824.49,-192"/>
<text text-anchor="middle" x="1764.49" y="-152.3" font-family="Times New Roman,serif" font-size="14.00">EV9</text>
</g>
<!-- AND_gate_2&#45;&gt;EV9 -->
<g id="edge13" class="edge">
<title>AND_gate_2&#45;&gt;EV9</title>
<path fill="none" stroke="black" d="M1615.09,-156C1615.09,-156 1682.09,-156 1682.09,-156"/>
<polygon fill="black" stroke="black" points="1682.09,-159.5 1692.09,-156 1682.09,-152.5 1682.09,-159.5"/>
</g>
<!-- EV11 -->
<g id="node15" class="node">
<title>EV11</title>
<path fill="none" stroke="black" d="M1824.49,-312C1824.49,-312 1704.49,-312 1704.49,-312 1698.49,-312 1692.49,-306 1692.49,-300 1692.49,-300 1692.49,-252 1692.49,-252 1692.49,-246 1698.49,-240 1704.49,-240 1704.49,-240 1824.49,-240 1824.49,-240 1830.49,-240 1836.49,-246 1836.49,-252 1836.49,-252 1836.49,-300 1836.49,-300 1836.49,-306 1830.49,-312 1824.49,-312"/>
<text text-anchor="middle" x="1764.49" y="-272.3" font-family="Times New Roman,serif" font-size="14.00">EV11</text>
</g>
<!-- AND_gate_2&#45;&gt;EV11 -->
<g id="edge14" class="edge">
<title>AND_gate_2&#45;&gt;EV11</title>
<path fill="none" stroke="black" d="M1548.49,-192.14C1548.49,-222.51 1548.49,-261 1548.49,-261 1548.49,-261 1682.29,-261 1682.29,-261"/>
<polygon fill="black" stroke="black" points="1682.29,-264.5 1692.29,-261 1682.29,-257.5 1682.29,-264.5"/>
</g>
<!-- startevent -->
<g id="node8" class="node">
<title>startevent</title>
<ellipse fill="none" stroke="black" cx="36.5" cy="-156" rx="36.5" ry="36.5"/>
<text text-anchor="middle" x="36.5" y="-152.3" font-family="Times New Roman,serif" font-size="14.00">startevent</text>
</g>
<!-- EV1 -->
<g id="node9" class="node">
<title>EV1</title>
<path fill="none" stroke="black" d="M312.5,-192C312.5,-192 192.5,-192 192.5,-192 186.5,-192 180.5,-186 180.5,-180 180.5,-180 180.5,-132 180.5,-132 180.5,-126 186.5,-120 192.5,-120 192.5,-120 312.5,-120 312.5,-120 318.5,-120 324.5,-126 324.5,-132 324.5,-132 324.5,-180 324.5,-180 324.5,-186 318.5,-192 312.5,-192"/>
<text text-anchor="middle" x="252.5" y="-152.3" font-family="Times New Roman,serif" font-size="14.00">EV1</text>
</g>
<!-- startevent&#45;&gt;EV1 -->
<g id="edge6" class="edge">
<title>startevent&#45;&gt;EV1</title>
<path fill="none" stroke="black" d="M73.14,-156C73.14,-156 170.21,-156 170.21,-156"/>
<polygon fill="black" stroke="black" points="170.21,-159.5 180.21,-156 170.21,-152.5 170.21,-159.5"/>
</g>
<!-- XOR_gate_1 -->
<g id="node10" class="node">
<title>XOR_gate_1</title>
<polygon fill="none" stroke="black" points="468.5,-192 402.67,-156 468.5,-120 534.33,-156 468.5,-192"/>
<text text-anchor="middle" x="468.5" y="-152.3" font-family="Times New Roman,serif" font-size="14.00">XOR_gate_1</text>
</g>
<!-- EV1&#45;&gt;XOR_gate_1 -->
<g id="edge7" class="edge">
<title>EV1&#45;&gt;XOR_gate_1</title>
<path fill="none" stroke="black" d="M324.72,-156C324.72,-156 392.53,-156 392.53,-156"/>
<polygon fill="black" stroke="black" points="392.53,-159.5 402.53,-156 392.53,-152.5 392.53,-159.5"/>
</g>
<!-- EV2 -->
<g id="node11" class="node">
<title>EV2</title>
<path fill="none" stroke="black" d="M744.5,-102C744.5,-102 624.5,-102 624.5,-102 618.5,-102 612.5,-96 612.5,-90 612.5,-90 612.5,-42 612.5,-42 612.5,-36 618.5,-30 624.5,-30 624.5,-30 744.5,-30 744.5,-30 750.5,-30 756.5,-36 756.5,-42 756.5,-42 756.5,-90 756.5,-90 756.5,-96 750.5,-102 744.5,-102"/>
<text text-anchor="middle" x="684.5" y="-62.3" font-family="Times New Roman,serif" font-size="14.00">EV2</text>
</g>
<!-- XOR_gate_1&#45;&gt;EV2 -->
<g id="edge8" class="edge">
<title>XOR_gate_1&#45;&gt;EV2</title>
<path fill="none" stroke="black" d="M468.5,-119.91C468.5,-94.87 468.5,-66 468.5,-66 468.5,-66 602.27,-66 602.27,-66"/>
<polygon fill="black" stroke="black" points="602.27,-69.5 612.27,-66 602.27,-62.5 602.27,-69.5"/>
</g>
<!-- EV3 -->
<g id="node12" class="node">
<title>EV3</title>
<path fill="none" stroke="black" d="M744.5,-282C744.5,-282 624.5,-282 624.5,-282 618.5,-282 612.5,-276 612.5,-270 612.5,-270 612.5,-222 612.5,-222 612.5,-216 618.5,-210 624.5,-210 624.5,-210 744.5,-210 744.5,-210 750.5,-210 756.5,-216 756.5,-222 756.5,-222 756.5,-270 756.5,-270 756.5,-276 750.5,-282 744.5,-282"/>
<text text-anchor="middle" x="684.5" y="-242.3" font-family="Times New Roman,serif" font-size="14.00">EV3</text>
</g>
<!-- XOR_gate_1&#45;&gt;EV3 -->
<g id="edge9" class="edge">
<title>XOR_gate_1&#45;&gt;EV3</title>
<path fill="none" stroke="black" d="M468.5,-192.09C468.5,-217.13 468.5,-246 468.5,-246 468.5,-246 602.27,-246 602.27,-246"/>
<polygon fill="black" stroke="black" points="602.27,-249.5 612.27,-246 602.27,-242.5 602.27,-249.5"/>
</g>
<!-- EV2&#45;&gt;XOR_gate_3 -->
<g id="edge10" class="edge">
<title>EV2&#45;&gt;XOR_gate_3</title>
<path fill="none" stroke="black" d="M756.72,-87C819.52,-87 900.5,-87 900.5,-87 900.5,-87 900.5,-109.88 900.5,-109.88"/>
<polygon fill="black" stroke="black" points="897,-109.88 900.5,-119.88 904,-109.88 897,-109.88"/>
</g>
<!-- EV3&#45;&gt;XOR_gate_3 -->
<g id="edge11" class="edge">
<title>EV3&#45;&gt;XOR_gate_3</title>
<path fill="none" stroke="black" d="M756.72,-225C819.52,-225 900.5,-225 900.5,-225 900.5,-225 900.5,-202.12 900.5,-202.12"/>
<polygon fill="black" stroke="black" points="904,-202.12 900.5,-192.12 897,-202.12 904,-202.12"/>
</g>
<!-- EV7 -->
<g id="node16" class="node">
<title>EV7</title>
<path fill="none" stroke="black" d="M2040.49,-72C2040.49,-72 1920.49,-72 1920.49,-72 1914.49,-72 1908.49,-66 1908.49,-60 1908.49,-60 1908.49,-12 1908.49,-12 1908.49,-6 1914.49,0 1920.49,0 1920.49,0 2040.49,0 2040.49,0 2046.49,0 2052.49,-6 2052.49,-12 2052.49,-12 2052.49,-60 2052.49,-60 2052.49,-66 2046.49,-72 2040.49,-72"/>
<text text-anchor="middle" x="1980.49" y="-32.3" font-family="Times New Roman,serif" font-size="14.00">EV7</text>
</g>
<!-- EV6&#45;&gt;EV7 -->
<g id="edge15" class="edge">
<title>EV6&#45;&gt;EV7</title>
<path fill="none" stroke="black" d="M1836.69,-36C1836.69,-36 1898.39,-36 1898.39,-36"/>
<polygon fill="black" stroke="black" points="1898.39,-39.5 1908.39,-36 1898.39,-32.5 1898.39,-39.5"/>
</g>
<!-- EV10 -->
<g id="node17" class="node">
<title>EV10</title>
<path fill="none" stroke="black" d="M2040.49,-192C2040.49,-192 1920.49,-192 1920.49,-192 1914.49,-192 1908.49,-186 1908.49,-180 1908.49,-180 1908.49,-132 1908.49,-132 1908.49,-126 1914.49,-120 1920.49,-120 1920.49,-120 2040.49,-120 2040.49,-120 2046.49,-120 2052.49,-126 2052.49,-132 2052.49,-132 2052.49,-180 2052.49,-180 2052.49,-186 2046.49,-192 2040.49,-192"/>
<text text-anchor="middle" x="1980.49" y="-152.3" font-family="Times New Roman,serif" font-size="14.00">EV10</text>
</g>
<!-- EV9&#45;&gt;EV10 -->
<g id="edge16" class="edge">
<title>EV9&#45;&gt;EV10</title>
<path fill="none" stroke="black" d="M1836.69,-156C1836.69,-156 1898.39,-156 1898.39,-156"/>
<polygon fill="black" stroke="black" points="1898.39,-159.5 1908.39,-156 1898.39,-152.5 1898.39,-159.5"/>
</g>
<!-- EV11&#45;&gt;XOR_gate_4 -->
<g id="edge17" class="edge">
<title>EV11&#45;&gt;XOR_gate_4</title>
<path fill="none" stroke="black" d="M1836.79,-276C1959.79,-276 2196.49,-276 2196.49,-276 2196.49,-276 2196.49,-202 2196.49,-202"/>
<polygon fill="black" stroke="black" points="2199.99,-202 2196.49,-192 2192.99,-202 2199.99,-202"/>
</g>
<!-- EV7&#45;&gt;XOR_gate_4 -->
<g id="edge18" class="edge">
<title>EV7&#45;&gt;XOR_gate_4</title>
<path fill="none" stroke="black" d="M2052.69,-36C2115.49,-36 2196.49,-36 2196.49,-36 2196.49,-36 2196.49,-110 2196.49,-110"/>
<polygon fill="black" stroke="black" points="2192.99,-110 2196.49,-120 2199.99,-110 2192.99,-110"/>
</g>
<!-- EV10&#45;&gt;XOR_gate_4 -->
<g id="edge19" class="edge">
<title>EV10&#45;&gt;XOR_gate_4</title>
<path fill="none" stroke="black" d="M2052.69,-156C2052.69,-156 2120.49,-156 2120.49,-156"/>
<polygon fill="black" stroke="black" points="2120.49,-159.5 2130.49,-156 2120.49,-152.5 2120.49,-159.5"/>
</g>
</g>
</svg>
