<?xml version="1.0" encoding="UTF-8" standalone="no"?>
<!DOCTYPE svg PUBLIC "-//W3C//DTD SVG 1.1//EN"
 "http://www.w3.org/Graphics/SVG/1.1/DTD/svg11.dtd">
<!-- Generated by graphviz version 2.50.0 (0)
 -->
<!-- Pages: 1 -->
<svg width="930pt" height="767pt"
 viewBox="0.00 0.00 930.00 767.50" xmlns="http://www.w3.org/2000/svg" xmlns:xlink="http://www.w3.org/1999/xlink">
<g id="graph0" class="graph" transform="scale(1 1) rotate(0) translate(4 763.5)">
<polygon fill="white" stroke="transparent" points="-4,4 -4,-763.5 926,-763.5 926,4 -4,4"/>
<!-- EA0 -->
<g id="node1" class="node">
<title>EA0</title>
<ellipse fill="none" stroke="black" cx="29" cy="-16.5" rx="29" ry="16.5"/>
<text text-anchor="middle" x="29" y="-12.8" font-family="Times New Roman,serif" font-size="14.00">EA0</text>
</g>
<!-- EA1 -->
<g id="node2" class="node">
<title>EA1</title>
<polygon fill="none" stroke="black" points="194.5,-28 151.5,-28 151.5,-5 194.5,-5 194.5,-28"/>
<text text-anchor="middle" x="173" y="-12.8" font-family="Times New Roman,serif" font-size="14.00">EA1</text>
</g>
<!-- EA0&#45;&gt;EA1 -->
<g id="edge1" class="edge">
<title>EA0&#45;&gt;EA1</title>
<path fill="none" stroke="black" d="M58.14,-16.24C58.14,-16.24 141.4,-16.24 141.4,-16.24"/>
<polygon fill="black" stroke="black" points="141.4,-19.74 151.4,-16.24 141.4,-12.74 141.4,-19.74"/>
</g>
<!-- EA2 -->
<g id="node3" class="node">
<title>EA2</title>
<polygon fill="none" stroke="black" points="338.5,-28 295.5,-28 295.5,-5 338.5,-5 338.5,-28"/>
<text text-anchor="middle" x="317" y="-12.8" font-family="Times New Roman,serif" font-size="14.00">EA2</text>
</g>
<!-- EA1&#45;&gt;EA2 -->
<g id="edge2" class="edge">
<title>EA1&#45;&gt;EA2</title>
<path fill="none" stroke="black" d="M194.56,-16.24C194.56,-16.24 285.3,-16.24 285.3,-16.24"/>
<polygon fill="black" stroke="black" points="285.3,-19.74 295.3,-16.24 285.3,-12.74 285.3,-19.74"/>
</g>
<!-- EA3 -->
<g id="node4" class="node">
<title>EA3</title>
<polygon fill="none" stroke="black" points="482.5,-28 439.5,-28 439.5,-5 482.5,-5 482.5,-28"/>
<text text-anchor="middle" x="461" y="-12.8" font-family="Times New Roman,serif" font-size="14.00">EA3</text>
</g>
<!-- EA2&#45;&gt;EA3 -->
<g id="edge3" class="edge">
<title>EA2&#45;&gt;EA3</title>
<path fill="none" stroke="black" d="M338.56,-16.24C338.56,-16.24 429.3,-16.24 429.3,-16.24"/>
<polygon fill="black" stroke="black" points="429.3,-19.74 439.3,-16.24 429.3,-12.74 429.3,-19.74"/>
</g>
<!-- EA12 -->
<g id="node5" class="node">
<title>EA12</title>
<polygon fill="none" stroke="black" points="53,-748 5,-748 5,-725 53,-725 53,-748"/>
<text text-anchor="middle" x="29" y="-732.8" font-family="Times New Roman,serif" font-size="14.00">EA12</text>
</g>
<!-- EA2&#45;&gt;EA12 -->
<g id="edge4" class="edge">
<title>EA2&#45;&gt;EA12</title>
<path fill="none" stroke="black" stroke-dasharray="5,2" d="M317,-28.29C317,-76.26 317,-254.24 317,-254.24 317,-254.24 99,-254.24 99,-254.24 99,-254.24 99,-732.24 99,-732.24 99,-732.24 63.09,-732.24 63.09,-732.24"/>
<polygon fill="black" stroke="black" points="63.09,-728.74 53.09,-732.24 63.09,-735.74 63.09,-728.74"/>
</g>
<!-- EA4 -->
<g id="node6" class="node">
<title>EA4</title>
<polygon fill="none" stroke="black" points="626.5,-28 583.5,-28 583.5,-5 626.5,-5 626.5,-28"/>
<text text-anchor="middle" x="605" y="-12.8" font-family="Times New Roman,serif" font-size="14.00">EA4</text>
</g>
<!-- EA3&#45;&gt;EA4 -->
<g id="edge5" class="edge">
<title>EA3&#45;&gt;EA4</title>
<path fill="none" stroke="black" d="M482.56,-16.24C482.56,-16.24 573.3,-16.24 573.3,-16.24"/>
<polygon fill="black" stroke="black" points="573.3,-19.74 583.3,-16.24 573.3,-12.74 573.3,-19.74"/>
</g>
<!-- EA7 -->
<g id="node7" class="node">
<title>EA7</title>
<polygon fill="none" stroke="black" points="50.5,-388 7.5,-388 7.5,-365 50.5,-365 50.5,-388"/>
<text text-anchor="middle" x="29" y="-372.8" font-family="Times New Roman,serif" font-size="14.00">EA7</text>
</g>
<!-- EA3&#45;&gt;EA7 -->
<g id="edge6" class="edge">
<title>EA3&#45;&gt;EA7</title>
<path fill="none" stroke="black" stroke-dasharray="5,2" d="M461,-28.2C461,-59.57 461,-143.24 461,-143.24 461,-143.24 29,-143.24 29,-143.24 29,-143.24 29,-354.94 29,-354.94"/>
<polygon fill="black" stroke="black" points="25.5,-354.94 29,-364.94 32.5,-354.94 25.5,-354.94"/>
</g>
<!-- G1 -->
<g id="node8" class="node">
<title>G1</title>
<polygon fill="none" stroke="black" points="173,-759.5 140,-736.5 173,-713.5 206,-736.5 173,-759.5"/>
<text text-anchor="middle" x="173" y="-732.8" font-family="Times New Roman,serif" font-size="14.00">G1</text>
</g>
<!-- EA12&#45;&gt;G1 -->
<g id="edge7" class="edge">
<title>EA12&#45;&gt;G1</title>
<path fill="none" stroke="black" d="M53.1,-740.24C53.1,-740.24 135.12,-740.24 135.12,-740.24"/>
<polygon fill="black" stroke="black" points="135.12,-743.74 145.12,-740.24 135.12,-736.74 135.12,-743.74"/>
</g>
<!-- EA5 -->
<g id="node9" class="node">
<title>EA5</title>
<polygon fill="none" stroke="black" points="770.5,-28 727.5,-28 727.5,-5 770.5,-5 770.5,-28"/>
<text text-anchor="middle" x="749" y="-12.8" font-family="Times New Roman,serif" font-size="14.00">EA5</text>
</g>
<!-- EA4&#45;&gt;EA5 -->
<g id="edge8" class="edge">
<title>EA4&#45;&gt;EA5</title>
<path fill="none" stroke="black" d="M626.56,-16.24C626.56,-16.24 717.3,-16.24 717.3,-16.24"/>
<polygon fill="black" stroke="black" points="717.3,-19.74 727.3,-16.24 717.3,-12.74 717.3,-19.74"/>
</g>
<!-- EA8 -->
<g id="node10" class="node">
<title>EA8</title>
<polygon fill="none" stroke="black" points="194.5,-388 151.5,-388 151.5,-365 194.5,-365 194.5,-388"/>
<text text-anchor="middle" x="173" y="-372.8" font-family="Times New Roman,serif" font-size="14.00">EA8</text>
</g>
<!-- EA7&#45;&gt;EA8 -->
<g id="edge9" class="edge">
<title>EA7&#45;&gt;EA8</title>
<path fill="none" stroke="black" d="M50.56,-376.24C50.56,-376.24 141.3,-376.24 141.3,-376.24"/>
<polygon fill="black" stroke="black" points="141.3,-379.74 151.3,-376.24 141.3,-372.74 141.3,-379.74"/>
</g>
<!-- EA13 -->
<g id="node11" class="node">
<title>EA13</title>
<polygon fill="none" stroke="black" points="341,-640 293,-640 293,-617 341,-617 341,-640"/>
<text text-anchor="middle" x="317" y="-624.8" font-family="Times New Roman,serif" font-size="14.00">EA13</text>
</g>
<!-- G1&#45;&gt;EA13 -->
<g id="edge10" class="edge">
<title>G1&#45;&gt;EA13</title>
<path fill="none" stroke="black" d="M200.25,-732.39C200.25,-712.62 200.25,-628.24 200.25,-628.24 200.25,-628.24 282.81,-628.24 282.81,-628.24"/>
<polygon fill="black" stroke="black" points="282.81,-631.74 292.81,-628.24 282.81,-624.74 282.81,-631.74"/>
</g>
<!-- G2 -->
<g id="node12" class="node">
<title>G2</title>
<polygon fill="none" stroke="black" points="317,-759.5 284,-736.5 317,-713.5 350,-736.5 317,-759.5"/>
<text text-anchor="middle" x="317" y="-732.8" font-family="Times New Roman,serif" font-size="14.00">G2</text>
</g>
<!-- G1&#45;&gt;G2 -->
<g id="edge11" class="edge">
<title>G1&#45;&gt;G2</title>
<path fill="none" stroke="black" d="M205.68,-736.24C205.68,-736.24 273.96,-736.24 273.96,-736.24"/>
<polygon fill="black" stroke="black" points="273.96,-739.74 283.96,-736.24 273.96,-732.74 273.96,-739.74"/>
</g>
<!-- EA6 -->
<g id="node13" class="node">
<title>EA6</title>
<ellipse fill="none" stroke="black" cx="893" cy="-16.5" rx="29" ry="16.5"/>
<text text-anchor="middle" x="893" y="-12.8" font-family="Times New Roman,serif" font-size="14.00">EA6</text>
</g>
<!-- EA5&#45;&gt;EA6 -->
<g id="edge12" class="edge">
<title>EA5&#45;&gt;EA6</title>
<path fill="none" stroke="black" d="M770.56,-16.24C770.56,-16.24 853.81,-16.24 853.81,-16.24"/>
<polygon fill="black" stroke="black" points="853.81,-19.74 863.81,-16.24 853.81,-12.74 853.81,-19.74"/>
</g>
<!-- EA9 -->
<g id="node14" class="node">
<title>EA9</title>
<polygon fill="none" stroke="black" points="338.5,-388 295.5,-388 295.5,-365 338.5,-365 338.5,-388"/>
<text text-anchor="middle" x="317" y="-372.8" font-family="Times New Roman,serif" font-size="14.00">EA9</text>
</g>
<!-- EA8&#45;&gt;EA9 -->
<g id="edge13" class="edge">
<title>EA8&#45;&gt;EA9</title>
<path fill="none" stroke="black" d="M194.56,-376.24C194.56,-376.24 285.3,-376.24 285.3,-376.24"/>
<polygon fill="black" stroke="black" points="285.3,-379.74 295.3,-376.24 285.3,-372.74 285.3,-379.74"/>
</g>
<!-- EA13&#45;&gt;G2 -->
<g id="edge18" class="edge">
<title>EA13&#45;&gt;G2</title>
<path fill="none" stroke="black" d="M317,-640.06C317,-640.06 317,-703.33 317,-703.33"/>
<polygon fill="black" stroke="black" points="313.5,-703.33 317,-713.33 320.5,-703.33 313.5,-703.33"/>
</g>
<!-- EA14 -->
<g id="node17" class="node">
<title>EA14</title>
<polygon fill="none" stroke="black" points="485,-748 437,-748 437,-725 485,-725 485,-748"/>
<text text-anchor="middle" x="461" y="-732.8" font-family="Times New Roman,serif" font-size="14.00">EA14</text>
</g>
<!-- G2&#45;&gt;EA14 -->
<g id="edge19" class="edge">
<title>G2&#45;&gt;EA14</title>
<path fill="none" stroke="black" d="M349.68,-736.24C349.68,-736.24 426.98,-736.24 426.98,-736.24"/>
<polygon fill="black" stroke="black" points="426.98,-739.74 436.98,-736.24 426.98,-732.74 426.98,-739.74"/>
</g>
<!-- EA10 -->
<g id="node15" class="node">
<title>EA10</title>
<polygon fill="none" stroke="black" points="485,-388 437,-388 437,-365 485,-365 485,-388"/>
<text text-anchor="middle" x="461" y="-372.8" font-family="Times New Roman,serif" font-size="14.00">EA10</text>
</g>
<!-- EA9&#45;&gt;EA10 -->
<g id="edge14" class="edge">
<title>EA9&#45;&gt;EA10</title>
<path fill="none" stroke="black" d="M338.56,-376.24C338.56,-376.24 426.89,-376.24 426.89,-376.24"/>
<polygon fill="black" stroke="black" points="426.89,-379.74 436.89,-376.24 426.89,-372.74 426.89,-379.74"/>
</g>
<!-- EA10&#45;&gt;EA12 -->
<g id="edge15" class="edge">
<title>EA10&#45;&gt;EA12</title>
<path fill="none" stroke="black" stroke-dasharray="5,2" d="M461,-388.11C461,-419.23 461,-502.24 461,-502.24 461,-502.24 29,-502.24 29,-502.24 29,-502.24 29,-714.89 29,-714.89"/>
<polygon fill="black" stroke="black" points="25.5,-714.89 29,-724.89 32.5,-714.89 25.5,-714.89"/>
</g>
<!-- EA11 -->
<g id="node16" class="node">
<title>EA11</title>
<polygon fill="none" stroke="black" points="629,-388 581,-388 581,-365 629,-365 629,-388"/>
<text text-anchor="middle" x="605" y="-372.8" font-family="Times New Roman,serif" font-size="14.00">EA11</text>
</g>
<!-- EA10&#45;&gt;EA11 -->
<g id="edge16" class="edge">
<title>EA10&#45;&gt;EA11</title>
<path fill="none" stroke="black" d="M485.1,-376.24C485.1,-376.24 570.82,-376.24 570.82,-376.24"/>
<polygon fill="black" stroke="black" points="570.82,-379.74 580.82,-376.24 570.82,-372.74 570.82,-379.74"/>
</g>
<!-- EA11&#45;&gt;EA4 -->
<g id="edge17" class="edge">
<title>EA11&#45;&gt;EA4</title>
<path fill="none" stroke="black" stroke-dasharray="5,2" d="M605,-364.93C605,-364.93 605,-38.21 605,-38.21"/>
<polygon fill="black" stroke="black" points="608.5,-38.21 605,-28.21 601.5,-38.21 608.5,-38.21"/>
</g>
</g>
</svg>
