<?xml version="1.0" encoding="UTF-8" standalone="no"?>
<!DOCTYPE svg PUBLIC "-//W3C//DTD SVG 1.1//EN"
 "http://www.w3.org/Graphics/SVG/1.1/DTD/svg11.dtd">
<!-- Generated by graphviz version 11.0.0 (20240428.1522)
 -->
<!-- Pages: 1 -->
<svg width="1628pt" height="801pt"
 viewBox="0.00 0.00 1628.00 800.68" xmlns="http://www.w3.org/2000/svg" xmlns:xlink="http://www.w3.org/1999/xlink">
<g id="graph0" class="graph" transform="scale(1 1) rotate(0) translate(4 796.68)">
<polygon fill="white" stroke="none" points="-4,4 -4,-796.68 1624,-796.68 1624,4 -4,4"/>
<!-- startevent -->
<g id="node1" class="node">
<title>startevent</title>
<ellipse fill="none" stroke="black" cx="72" cy="-36.68" rx="36.68" ry="36.68"/>
<text text-anchor="middle" x="72" y="-31.25" font-family="Times New Roman,serif" font-size="14.00">startevent</text>
</g>
<!-- EA0 -->
<g id="node2" class="node">
<title>EA0</title>
<ellipse fill="none" stroke="black" cx="288" cy="-36.68" rx="36" ry="36"/>
<text text-anchor="middle" x="288" y="-31.25" font-family="Times New Roman,serif" font-size="14.00">EA0</text>
</g>
<!-- startevent&#45;&gt;EA0 -->
<g id="edge1" class="edge">
<title>startevent&#45;&gt;EA0</title>
<path fill="none" stroke="black" d="M109.13,-36.68C145.39,-36.68 200.73,-36.68 240.25,-36.68"/>
<polygon fill="black" stroke="black" points="240.2,-40.18 250.2,-36.68 240.2,-33.18 240.2,-40.18"/>
</g>
<!-- EA1 -->
<g id="node3" class="node">
<title>EA1</title>
<path fill="none" stroke="black" d="M564,-72.68C564,-72.68 444,-72.68 444,-72.68 438,-72.68 432,-66.68 432,-60.68 432,-60.68 432,-12.68 432,-12.68 432,-6.68 438,-0.68 444,-0.68 444,-0.68 564,-0.68 564,-0.68 570,-0.68 576,-6.68 576,-12.68 576,-12.68 576,-60.68 576,-60.68 576,-66.68 570,-72.68 564,-72.68"/>
<text text-anchor="middle" x="504" y="-31.25" font-family="Times New Roman,serif" font-size="14.00">EA1</text>
</g>
<!-- EA0&#45;&gt;EA1 -->
<g id="edge2" class="edge">
<title>EA0&#45;&gt;EA1</title>
<path fill="none" stroke="black" d="M324.15,-36.68C350.48,-36.68 387.23,-36.68 420.66,-36.68"/>
<polygon fill="black" stroke="black" points="420.34,-40.18 430.34,-36.68 420.34,-33.18 420.34,-40.18"/>
</g>
<!-- EA2 -->
<g id="node4" class="node">
<title>EA2</title>
<path fill="none" stroke="black" d="M780,-72.68C780,-72.68 660,-72.68 660,-72.68 654,-72.68 648,-66.68 648,-60.68 648,-60.68 648,-12.68 648,-12.68 648,-6.68 654,-0.68 660,-0.68 660,-0.68 780,-0.68 780,-0.68 786,-0.68 792,-6.68 792,-12.68 792,-12.68 792,-60.68 792,-60.68 792,-66.68 786,-72.68 780,-72.68"/>
<text text-anchor="middle" x="720" y="-31.25" font-family="Times New Roman,serif" font-size="14.00">EA2</text>
</g>
<!-- EA1&#45;&gt;EA2 -->
<g id="edge3" class="edge">
<title>EA1&#45;&gt;EA2</title>
<path fill="none" stroke="black" d="M576.23,-36.68C595.59,-36.68 616.68,-36.68 636.6,-36.68"/>
<polygon fill="black" stroke="black" points="636.33,-40.18 646.33,-36.68 636.33,-33.18 636.33,-40.18"/>
</g>
<!-- EA3 -->
<g id="node5" class="node">
<title>EA3</title>
<path fill="none" stroke="black" d="M996,-72.68C996,-72.68 876,-72.68 876,-72.68 870,-72.68 864,-66.68 864,-60.68 864,-60.68 864,-12.68 864,-12.68 864,-6.68 870,-0.68 876,-0.68 876,-0.68 996,-0.68 996,-0.68 1002,-0.68 1008,-6.68 1008,-12.68 1008,-12.68 1008,-60.68 1008,-60.68 1008,-66.68 1002,-72.68 996,-72.68"/>
<text text-anchor="middle" x="936" y="-31.25" font-family="Times New Roman,serif" font-size="14.00">EA3</text>
</g>
<!-- EA2&#45;&gt;EA3 -->
<g id="edge4" class="edge">
<title>EA2&#45;&gt;EA3</title>
<path fill="none" stroke="black" d="M792.23,-36.68C811.59,-36.68 832.68,-36.68 852.6,-36.68"/>
<polygon fill="black" stroke="black" points="852.33,-40.18 862.33,-36.68 852.33,-33.18 852.33,-40.18"/>
</g>
<!-- EA12 -->
<g id="node6" class="node">
<title>EA12</title>
<path fill="none" stroke="black" d="M348,-792.68C348,-792.68 228,-792.68 228,-792.68 222,-792.68 216,-786.68 216,-780.68 216,-780.68 216,-732.68 216,-732.68 216,-726.68 222,-720.68 228,-720.68 228,-720.68 348,-720.68 348,-720.68 354,-720.68 360,-726.68 360,-732.68 360,-732.68 360,-780.68 360,-780.68 360,-786.68 354,-792.68 348,-792.68"/>
<text text-anchor="middle" x="288" y="-751.25" font-family="Times New Roman,serif" font-size="14.00">EA12</text>
</g>
<!-- EA2&#45;&gt;EA12 -->
<g id="edge5" class="edge">
<title>EA2&#45;&gt;EA12</title>
<path fill="none" stroke="black" stroke-dasharray="5,2" d="M698.28,-72.87C626.25,-192.92 395.31,-577.82 315.47,-710.9"/>
<polygon fill="black" stroke="black" points="312.69,-708.74 310.54,-719.11 318.69,-712.34 312.69,-708.74"/>
</g>
<!-- EA4 -->
<g id="node7" class="node">
<title>EA4</title>
<path fill="none" stroke="black" d="M1212,-72.68C1212,-72.68 1092,-72.68 1092,-72.68 1086,-72.68 1080,-66.68 1080,-60.68 1080,-60.68 1080,-12.68 1080,-12.68 1080,-6.68 1086,-0.68 1092,-0.68 1092,-0.68 1212,-0.68 1212,-0.68 1218,-0.68 1224,-6.68 1224,-12.68 1224,-12.68 1224,-60.68 1224,-60.68 1224,-66.68 1218,-72.68 1212,-72.68"/>
<text text-anchor="middle" x="1152" y="-31.25" font-family="Times New Roman,serif" font-size="14.00">EA4</text>
</g>
<!-- EA3&#45;&gt;EA4 -->
<g id="edge6" class="edge">
<title>EA3&#45;&gt;EA4</title>
<path fill="none" stroke="black" d="M1008.2,-36.68C1027.6,-36.68 1048.7,-36.68 1068.6,-36.68"/>
<polygon fill="black" stroke="black" points="1068.29,-40.18 1078.29,-36.68 1068.29,-33.18 1068.29,-40.18"/>
</g>
<!-- EA7 -->
<g id="node8" class="node">
<title>EA7</title>
<path fill="none" stroke="black" d="M132,-432.68C132,-432.68 12,-432.68 12,-432.68 6,-432.68 0,-426.68 0,-420.68 0,-420.68 0,-372.68 0,-372.68 0,-366.68 6,-360.68 12,-360.68 12,-360.68 132,-360.68 132,-360.68 138,-360.68 144,-366.68 144,-372.68 144,-372.68 144,-420.68 144,-420.68 144,-426.68 138,-432.68 132,-432.68"/>
<text text-anchor="middle" x="72" y="-391.25" font-family="Times New Roman,serif" font-size="14.00">EA7</text>
</g>
<!-- EA3&#45;&gt;EA7 -->
<g id="edge7" class="edge">
<title>EA3&#45;&gt;EA7</title>
<path fill="none" stroke="black" stroke-dasharray="5,2" d="M863.82,-66.75C704.5,-133.14 323.55,-291.87 154.83,-362.16"/>
<polygon fill="black" stroke="black" points="153.56,-358.9 145.68,-365.98 156.25,-365.36 153.56,-358.9"/>
</g>
<!-- G1 -->
<g id="node9" class="node">
<title>G1</title>
<path fill="none" stroke="black" d="M564,-792.68C564,-792.68 444,-792.68 444,-792.68 438,-792.68 432,-786.68 432,-780.68 432,-780.68 432,-732.68 432,-732.68 432,-726.68 438,-720.68 444,-720.68 444,-720.68 564,-720.68 564,-720.68 570,-720.68 576,-726.68 576,-732.68 576,-732.68 576,-780.68 576,-780.68 576,-786.68 570,-792.68 564,-792.68"/>
<text text-anchor="middle" x="504" y="-751.25" font-family="Times New Roman,serif" font-size="14.00">G1</text>
</g>
<!-- EA12&#45;&gt;G1 -->
<g id="edge8" class="edge">
<title>EA12&#45;&gt;G1</title>
<path fill="none" stroke="black" d="M360.23,-756.68C379.59,-756.68 400.68,-756.68 420.6,-756.68"/>
<polygon fill="black" stroke="black" points="420.33,-760.18 430.33,-756.68 420.33,-753.18 420.33,-760.18"/>
</g>
<!-- EA5 -->
<g id="node10" class="node">
<title>EA5</title>
<path fill="none" stroke="black" d="M1428,-72.68C1428,-72.68 1308,-72.68 1308,-72.68 1302,-72.68 1296,-66.68 1296,-60.68 1296,-60.68 1296,-12.68 1296,-12.68 1296,-6.68 1302,-0.68 1308,-0.68 1308,-0.68 1428,-0.68 1428,-0.68 1434,-0.68 1440,-6.68 1440,-12.68 1440,-12.68 1440,-60.68 1440,-60.68 1440,-66.68 1434,-72.68 1428,-72.68"/>
<text text-anchor="middle" x="1368" y="-31.25" font-family="Times New Roman,serif" font-size="14.00">EA5</text>
</g>
<!-- EA4&#45;&gt;EA5 -->
<g id="edge9" class="edge">
<title>EA4&#45;&gt;EA5</title>
<path fill="none" stroke="black" d="M1224.2,-36.68C1243.6,-36.68 1264.7,-36.68 1284.6,-36.68"/>
<polygon fill="black" stroke="black" points="1284.29,-40.18 1294.29,-36.68 1284.29,-33.18 1284.29,-40.18"/>
</g>
<!-- EA8 -->
<g id="node11" class="node">
<title>EA8</title>
<path fill="none" stroke="black" d="M348,-432.68C348,-432.68 228,-432.68 228,-432.68 222,-432.68 216,-426.68 216,-420.68 216,-420.68 216,-372.68 216,-372.68 216,-366.68 222,-360.68 228,-360.68 228,-360.68 348,-360.68 348,-360.68 354,-360.68 360,-366.68 360,-372.68 360,-372.68 360,-420.68 360,-420.68 360,-426.68 354,-432.68 348,-432.68"/>
<text text-anchor="middle" x="288" y="-391.25" font-family="Times New Roman,serif" font-size="14.00">EA8</text>
</g>
<!-- EA7&#45;&gt;EA8 -->
<g id="edge10" class="edge">
<title>EA7&#45;&gt;EA8</title>
<path fill="none" stroke="black" d="M144.23,-396.68C163.59,-396.68 184.68,-396.68 204.6,-396.68"/>
<polygon fill="black" stroke="black" points="204.33,-400.18 214.33,-396.68 204.33,-393.18 204.33,-400.18"/>
</g>
<!-- XOR_gate_1 -->
<g id="node12" class="node">
<title>XOR_gate_1</title>
<polygon fill="none" stroke="black" points="720,-792.68 652.4,-756.68 720,-720.68 787.6,-756.68 720,-792.68"/>
<text text-anchor="middle" x="720" y="-751.25" font-family="Times New Roman,serif" font-size="14.00">XOR_gate_1</text>
</g>
<!-- G1&#45;&gt;XOR_gate_1 -->
<g id="edge11" class="edge">
<title>G1&#45;&gt;XOR_gate_1</title>
<path fill="none" stroke="black" d="M576.23,-756.68C596.71,-756.68 619.14,-756.68 640.06,-756.68"/>
<polygon fill="black" stroke="black" points="639.99,-760.18 649.99,-756.68 639.99,-753.18 639.99,-760.18"/>
</g>
<!-- EA6 -->
<g id="node13" class="node">
<title>EA6</title>
<ellipse fill="none" stroke="black" cx="1584" cy="-36.68" rx="36" ry="36"/>
<text text-anchor="middle" x="1584" y="-31.25" font-family="Times New Roman,serif" font-size="14.00">EA6</text>
</g>
<!-- EA5&#45;&gt;EA6 -->
<g id="edge12" class="edge">
<title>EA5&#45;&gt;EA6</title>
<path fill="none" stroke="black" d="M1440.2,-36.68C1471.9,-36.68 1508.2,-36.68 1536.4,-36.68"/>
<polygon fill="black" stroke="black" points="1536.09,-40.18 1546.09,-36.68 1536.09,-33.18 1536.09,-40.18"/>
</g>
<!-- EA9 -->
<g id="node14" class="node">
<title>EA9</title>
<path fill="none" stroke="black" d="M564,-432.68C564,-432.68 444,-432.68 444,-432.68 438,-432.68 432,-426.68 432,-420.68 432,-420.68 432,-372.68 432,-372.68 432,-366.68 438,-360.68 444,-360.68 444,-360.68 564,-360.68 564,-360.68 570,-360.68 576,-366.68 576,-372.68 576,-372.68 576,-420.68 576,-420.68 576,-426.68 570,-432.68 564,-432.68"/>
<text text-anchor="middle" x="504" y="-391.25" font-family="Times New Roman,serif" font-size="14.00">EA9</text>
</g>
<!-- EA8&#45;&gt;EA9 -->
<g id="edge13" class="edge">
<title>EA8&#45;&gt;EA9</title>
<path fill="none" stroke="black" d="M360.23,-396.68C379.59,-396.68 400.68,-396.68 420.6,-396.68"/>
<polygon fill="black" stroke="black" points="420.33,-400.18 430.33,-396.68 420.33,-393.18 420.33,-400.18"/>
</g>
<!-- G2 -->
<g id="node17" class="node">
<title>G2</title>
<path fill="none" stroke="black" d="M996,-792.68C996,-792.68 876,-792.68 876,-792.68 870,-792.68 864,-786.68 864,-780.68 864,-780.68 864,-732.68 864,-732.68 864,-726.68 870,-720.68 876,-720.68 876,-720.68 996,-720.68 996,-720.68 1002,-720.68 1008,-726.68 1008,-732.68 1008,-732.68 1008,-780.68 1008,-780.68 1008,-786.68 1002,-792.68 996,-792.68"/>
<text text-anchor="middle" x="936" y="-751.25" font-family="Times New Roman,serif" font-size="14.00">G2</text>
</g>
<!-- XOR_gate_1&#45;&gt;G2 -->
<g id="edge18" class="edge">
<title>XOR_gate_1&#45;&gt;G2</title>
<path fill="none" stroke="black" d="M788.64,-756.68C808.95,-756.68 831.42,-756.68 852.56,-756.68"/>
<polygon fill="black" stroke="black" points="852.3,-760.18 862.3,-756.68 852.3,-753.18 852.3,-760.18"/>
</g>
<!-- EA10 -->
<g id="node15" class="node">
<title>EA10</title>
<path fill="none" stroke="black" d="M780,-432.68C780,-432.68 660,-432.68 660,-432.68 654,-432.68 648,-426.68 648,-420.68 648,-420.68 648,-372.68 648,-372.68 648,-366.68 654,-360.68 660,-360.68 660,-360.68 780,-360.68 780,-360.68 786,-360.68 792,-366.68 792,-372.68 792,-372.68 792,-420.68 792,-420.68 792,-426.68 786,-432.68 780,-432.68"/>
<text text-anchor="middle" x="720" y="-391.25" font-family="Times New Roman,serif" font-size="14.00">EA10</text>
</g>
<!-- EA9&#45;&gt;EA10 -->
<g id="edge14" class="edge">
<title>EA9&#45;&gt;EA10</title>
<path fill="none" stroke="black" d="M576.23,-396.68C595.59,-396.68 616.68,-396.68 636.6,-396.68"/>
<polygon fill="black" stroke="black" points="636.33,-400.18 646.33,-396.68 636.33,-393.18 636.33,-400.18"/>
</g>
<!-- EA10&#45;&gt;EA12 -->
<g id="edge15" class="edge">
<title>EA10&#45;&gt;EA12</title>
<path fill="none" stroke="black" stroke-dasharray="5,2" d="M676.2,-433.18C596.13,-499.91 426.46,-641.29 340.41,-713"/>
<polygon fill="black" stroke="black" points="338.19,-710.29 332.75,-719.38 342.68,-715.67 338.19,-710.29"/>
</g>
<!-- EA11 -->
<g id="node16" class="node">
<title>EA11</title>
<path fill="none" stroke="black" d="M996,-432.68C996,-432.68 876,-432.68 876,-432.68 870,-432.68 864,-426.68 864,-420.68 864,-420.68 864,-372.68 864,-372.68 864,-366.68 870,-360.68 876,-360.68 876,-360.68 996,-360.68 996,-360.68 1002,-360.68 1008,-366.68 1008,-372.68 1008,-372.68 1008,-420.68 1008,-420.68 1008,-426.68 1002,-432.68 996,-432.68"/>
<text text-anchor="middle" x="936" y="-391.25" font-family="Times New Roman,serif" font-size="14.00">EA11</text>
</g>
<!-- EA10&#45;&gt;EA11 -->
<g id="edge16" class="edge">
<title>EA10&#45;&gt;EA11</title>
<path fill="none" stroke="black" d="M792.23,-396.68C811.59,-396.68 832.68,-396.68 852.6,-396.68"/>
<polygon fill="black" stroke="black" points="852.33,-400.18 862.33,-396.68 852.33,-393.18 852.33,-400.18"/>
</g>
<!-- EA11&#45;&gt;EA4 -->
<g id="edge17" class="edge">
<title>EA11&#45;&gt;EA4</title>
<path fill="none" stroke="black" stroke-dasharray="5,2" d="M957.9,-360.18C997.49,-294.19 1080.9,-155.2 1124.3,-82.77"/>
<polygon fill="black" stroke="black" points="1127.24,-84.67 1129.42,-74.3 1121.25,-81.05 1127.24,-84.67"/>
</g>
<!-- EA14 -->
<g id="node18" class="node">
<title>EA14</title>
<path fill="none" stroke="black" d="M1212,-792.68C1212,-792.68 1092,-792.68 1092,-792.68 1086,-792.68 1080,-786.68 1080,-780.68 1080,-780.68 1080,-732.68 1080,-732.68 1080,-726.68 1086,-720.68 1092,-720.68 1092,-720.68 1212,-720.68 1212,-720.68 1218,-720.68 1224,-726.68 1224,-732.68 1224,-732.68 1224,-780.68 1224,-780.68 1224,-786.68 1218,-792.68 1212,-792.68"/>
<text text-anchor="middle" x="1152" y="-751.25" font-family="Times New Roman,serif" font-size="14.00">EA14</text>
</g>
<!-- G2&#45;&gt;EA14 -->
<g id="edge19" class="edge">
<title>G2&#45;&gt;EA14</title>
<path fill="none" stroke="black" d="M1008.2,-756.68C1027.6,-756.68 1048.7,-756.68 1068.6,-756.68"/>
<polygon fill="black" stroke="black" points="1068.29,-760.18 1078.29,-756.68 1068.29,-753.18 1068.29,-760.18"/>
</g>
<!-- endevent -->
<g id="node19" class="node">
<title>endevent</title>
<ellipse fill="none" stroke="black" cx="1368" cy="-756.68" rx="36" ry="36"/>
<text text-anchor="middle" x="1368" y="-751.25" font-family="Times New Roman,serif" font-size="14.00">endevent</text>
</g>
<!-- EA14&#45;&gt;endevent -->
<g id="edge20" class="edge">
<title>EA14&#45;&gt;endevent</title>
<path fill="none" stroke="black" d="M1224.2,-756.68C1255.9,-756.68 1292.2,-756.68 1320.4,-756.68"/>
<polygon fill="black" stroke="black" points="1320.09,-760.18 1330.09,-756.68 1320.09,-753.18 1320.09,-760.18"/>
</g>
<!-- EA13 -->
<g id="node20" class="node">
<title>EA13</title>
<path fill="none" stroke="black" d="M564,-792.68C564,-792.68 444,-792.68 444,-792.68 438,-792.68 432,-786.68 432,-780.68 432,-780.68 432,-732.68 432,-732.68 432,-726.68 438,-720.68 444,-720.68 444,-720.68 564,-720.68 564,-720.68 570,-720.68 576,-726.68 576,-732.68 576,-732.68 576,-780.68 576,-780.68 576,-786.68 570,-792.68 564,-792.68"/>
<text text-anchor="middle" x="504" y="-751.25" font-family="Times New Roman,serif" font-size="14.00">EA13</text>
</g>
<!-- EA13&#45;&gt;XOR_gate_1 -->
<g id="edge21" class="edge">
<title>EA13&#45;&gt;XOR_gate_1</title>
<path fill="none" stroke="black" d="M576.23,-756.68C596.71,-756.68 619.14,-756.68 640.06,-756.68"/>
<polygon fill="black" stroke="black" points="639.99,-760.18 649.99,-756.68 639.99,-753.18 639.99,-760.18"/>
</g>
</g>
</svg>
