<?xml version="1.0" encoding="UTF-8" standalone="no"?>
<!DOCTYPE svg PUBLIC "-//W3C//DTD SVG 1.1//EN"
 "http://www.w3.org/Graphics/SVG/1.1/DTD/svg11.dtd">
<!-- Generated by graphviz version 2.46.0 (20210118.1747)
 -->
<!-- Pages: 1 -->
<svg width="2672pt" height="320pt"
 viewBox="0.00 0.00 2672.00 320.00" xmlns="http://www.w3.org/2000/svg" xmlns:xlink="http://www.w3.org/1999/xlink">
<g id="graph0" class="graph" transform="scale(1 1) rotate(0) translate(4 316)">
<polygon fill="white" stroke="transparent" points="-4,4 -4,-316 2668,-316 2668,4 -4,4"/>
<!-- XOR_gate_4 -->
<g id="node1" class="node">
<title>XOR_gate_4</title>
<polygon fill="none" stroke="black" points="2196,-192 2160.86,-156 2196,-120 2231.14,-156 2196,-192"/>
<text text-anchor="middle" x="2196" y="-152.3" font-family="Times New Roman,serif" font-size="14.00">XOR</text>
</g>
<!-- Step 8 -->
<g id="node2" class="node">
<title>Step 8</title>
<path fill="none" stroke="black" d="M2472,-192C2472,-192 2352,-192 2352,-192 2346,-192 2340,-186 2340,-180 2340,-180 2340,-132 2340,-132 2340,-126 2346,-120 2352,-120 2352,-120 2472,-120 2472,-120 2478,-120 2484,-126 2484,-132 2484,-132 2484,-180 2484,-180 2484,-186 2478,-192 2472,-192"/>
<text text-anchor="middle" x="2412" y="-152.3" font-family="Times New Roman,serif" font-size="14.00">Step 8</text>
</g>
<!-- XOR_gate_4&#45;&gt;Step 8 -->
<g id="edge1" class="edge">
<title>XOR_gate_4&#45;&gt;Step 8</title>
<path fill="none" stroke="black" d="M2231.2,-156C2231.2,-156 2329.7,-156 2329.7,-156"/>
<polygon fill="black" stroke="black" points="2329.7,-159.5 2339.7,-156 2329.7,-152.5 2329.7,-159.5"/>
</g>
<!-- End -->
<g id="node3" class="node">
<title>End</title>
<ellipse fill="none" stroke="black" cx="2628" cy="-156" rx="36" ry="36"/>
<text text-anchor="middle" x="2628" y="-152.3" font-family="Times New Roman,serif" font-size="14.00">End</text>
</g>
<!-- Step 8&#45;&gt;End -->
<g id="edge2" class="edge">
<title>Step 8&#45;&gt;End</title>
<path fill="none" stroke="black" d="M2484.2,-156C2484.2,-156 2581.9,-156 2581.9,-156"/>
<polygon fill="black" stroke="black" points="2581.9,-159.5 2591.9,-156 2581.9,-152.5 2581.9,-159.5"/>
</g>
<!-- XOR_gate_3 -->
<g id="node4" class="node">
<title>XOR_gate_3</title>
<polygon fill="none" stroke="black" points="900,-192 864.86,-156 900,-120 935.14,-156 900,-192"/>
<text text-anchor="middle" x="900" y="-152.3" font-family="Times New Roman,serif" font-size="14.00">XOR</text>
</g>
<!-- Step 4 -->
<g id="node5" class="node">
<title>Step 4</title>
<path fill="none" stroke="black" d="M1176,-192C1176,-192 1056,-192 1056,-192 1050,-192 1044,-186 1044,-180 1044,-180 1044,-132 1044,-132 1044,-126 1050,-120 1056,-120 1056,-120 1176,-120 1176,-120 1182,-120 1188,-126 1188,-132 1188,-132 1188,-180 1188,-180 1188,-186 1182,-192 1176,-192"/>
<text text-anchor="middle" x="1116" y="-152.3" font-family="Times New Roman,serif" font-size="14.00">Step 4</text>
</g>
<!-- XOR_gate_3&#45;&gt;Step 4 -->
<g id="edge3" class="edge">
<title>XOR_gate_3&#45;&gt;Step 4</title>
<path fill="none" stroke="black" d="M935.18,-156C935.18,-156 1033.7,-156 1033.7,-156"/>
<polygon fill="black" stroke="black" points="1033.7,-159.5 1043.7,-156 1033.7,-152.5 1033.7,-159.5"/>
</g>
<!-- Step 5 -->
<g id="node6" class="node">
<title>Step 5</title>
<path fill="none" stroke="black" d="M1392,-192C1392,-192 1272,-192 1272,-192 1266,-192 1260,-186 1260,-180 1260,-180 1260,-132 1260,-132 1260,-126 1266,-120 1272,-120 1272,-120 1392,-120 1392,-120 1398,-120 1404,-126 1404,-132 1404,-132 1404,-180 1404,-180 1404,-186 1398,-192 1392,-192"/>
<text text-anchor="middle" x="1332" y="-152.3" font-family="Times New Roman,serif" font-size="14.00">Step 5</text>
</g>
<!-- Step 4&#45;&gt;Step 5 -->
<g id="edge4" class="edge">
<title>Step 4&#45;&gt;Step 5</title>
<path fill="none" stroke="black" d="M1188.2,-156C1188.2,-156 1249.8,-156 1249.8,-156"/>
<polygon fill="black" stroke="black" points="1249.8,-159.5 1259.8,-156 1249.8,-152.5 1249.8,-159.5"/>
</g>
<!-- AND_gate_2 -->
<g id="node7" class="node">
<title>AND_gate_2</title>
<polygon fill="none" stroke="black" points="1548,-192 1513.5,-156 1548,-120 1582.5,-156 1548,-192"/>
<text text-anchor="middle" x="1548" y="-152.3" font-family="Times New Roman,serif" font-size="14.00">AND</text>
</g>
<!-- Step 5&#45;&gt;AND_gate_2 -->
<g id="edge5" class="edge">
<title>Step 5&#45;&gt;AND_gate_2</title>
<path fill="none" stroke="black" d="M1404.2,-156C1404.2,-156 1503.7,-156 1503.7,-156"/>
<polygon fill="black" stroke="black" points="1503.7,-159.5 1513.7,-156 1503.7,-152.5 1503.7,-159.5"/>
</g>
<!-- Step 6 -->
<g id="node13" class="node">
<title>Step 6</title>
<path fill="none" stroke="black" d="M1824,-192C1824,-192 1704,-192 1704,-192 1698,-192 1692,-186 1692,-180 1692,-180 1692,-132 1692,-132 1692,-126 1698,-120 1704,-120 1704,-120 1824,-120 1824,-120 1830,-120 1836,-126 1836,-132 1836,-132 1836,-180 1836,-180 1836,-186 1830,-192 1824,-192"/>
<text text-anchor="middle" x="1764" y="-152.3" font-family="Times New Roman,serif" font-size="14.00">Step 6</text>
</g>
<!-- AND_gate_2&#45;&gt;Step 6 -->
<g id="edge12" class="edge">
<title>AND_gate_2&#45;&gt;Step 6</title>
<path fill="none" stroke="black" d="M1582.2,-156C1582.2,-156 1681.9,-156 1681.9,-156"/>
<polygon fill="black" stroke="black" points="1681.9,-159.5 1691.9,-156 1681.9,-152.5 1681.9,-159.5"/>
</g>
<!-- Step 9 -->
<g id="node14" class="node">
<title>Step 9</title>
<path fill="none" stroke="black" d="M1824,-312C1824,-312 1704,-312 1704,-312 1698,-312 1692,-306 1692,-300 1692,-300 1692,-252 1692,-252 1692,-246 1698,-240 1704,-240 1704,-240 1824,-240 1824,-240 1830,-240 1836,-246 1836,-252 1836,-252 1836,-300 1836,-300 1836,-306 1830,-312 1824,-312"/>
<text text-anchor="middle" x="1764" y="-272.3" font-family="Times New Roman,serif" font-size="14.00">Step 9</text>
</g>
<!-- AND_gate_2&#45;&gt;Step 9 -->
<g id="edge13" class="edge">
<title>AND_gate_2&#45;&gt;Step 9</title>
<path fill="none" stroke="black" d="M1548,-192.14C1548,-222.51 1548,-261 1548,-261 1548,-261 1681.8,-261 1681.8,-261"/>
<polygon fill="black" stroke="black" points="1681.8,-264.5 1691.8,-261 1681.8,-257.5 1681.8,-264.5"/>
</g>
<!-- Step 11 -->
<g id="node15" class="node">
<title>Step 11</title>
<path fill="none" stroke="black" d="M1824,-72C1824,-72 1704,-72 1704,-72 1698,-72 1692,-66 1692,-60 1692,-60 1692,-12 1692,-12 1692,-6 1698,0 1704,0 1704,0 1824,0 1824,0 1830,0 1836,-6 1836,-12 1836,-12 1836,-60 1836,-60 1836,-66 1830,-72 1824,-72"/>
<text text-anchor="middle" x="1764" y="-32.3" font-family="Times New Roman,serif" font-size="14.00">Step 11</text>
</g>
<!-- AND_gate_2&#45;&gt;Step 11 -->
<g id="edge14" class="edge">
<title>AND_gate_2&#45;&gt;Step 11</title>
<path fill="none" stroke="black" d="M1548,-119.82C1548,-89.11 1548,-50 1548,-50 1548,-50 1681.8,-50 1681.8,-50"/>
<polygon fill="black" stroke="black" points="1681.8,-53.5 1691.8,-50 1681.8,-46.5 1681.8,-53.5"/>
</g>
<!-- Start -->
<g id="node8" class="node">
<title>Start</title>
<ellipse fill="none" stroke="black" cx="36" cy="-156" rx="36" ry="36"/>
<text text-anchor="middle" x="36" y="-152.3" font-family="Times New Roman,serif" font-size="14.00">Start</text>
</g>
<!-- Step 1 -->
<g id="node9" class="node">
<title>Step 1</title>
<path fill="none" stroke="black" d="M312,-192C312,-192 192,-192 192,-192 186,-192 180,-186 180,-180 180,-180 180,-132 180,-132 180,-126 186,-120 192,-120 192,-120 312,-120 312,-120 318,-120 324,-126 324,-132 324,-132 324,-180 324,-180 324,-186 318,-192 312,-192"/>
<text text-anchor="middle" x="252" y="-152.3" font-family="Times New Roman,serif" font-size="14.00">Step 1</text>
</g>
<!-- Start&#45;&gt;Step 1 -->
<g id="edge6" class="edge">
<title>Start&#45;&gt;Step 1</title>
<path fill="none" stroke="black" d="M72.15,-156C72.15,-156 169.85,-156 169.85,-156"/>
<polygon fill="black" stroke="black" points="169.85,-159.5 179.85,-156 169.85,-152.5 169.85,-159.5"/>
</g>
<!-- XOR_gate_1 -->
<g id="node10" class="node">
<title>XOR_gate_1</title>
<polygon fill="none" stroke="black" points="468,-192 432.86,-156 468,-120 503.14,-156 468,-192"/>
<text text-anchor="middle" x="468" y="-152.3" font-family="Times New Roman,serif" font-size="14.00">XOR</text>
</g>
<!-- Step 1&#45;&gt;XOR_gate_1 -->
<g id="edge7" class="edge">
<title>Step 1&#45;&gt;XOR_gate_1</title>
<path fill="none" stroke="black" d="M324.23,-156C324.23,-156 422.8,-156 422.8,-156"/>
<polygon fill="black" stroke="black" points="422.8,-159.5 432.8,-156 422.8,-152.5 422.8,-159.5"/>
</g>
<!-- Step 2 -->
<g id="node11" class="node">
<title>Step 2</title>
<path fill="none" stroke="black" d="M744,-102C744,-102 624,-102 624,-102 618,-102 612,-96 612,-90 612,-90 612,-42 612,-42 612,-36 618,-30 624,-30 624,-30 744,-30 744,-30 750,-30 756,-36 756,-42 756,-42 756,-90 756,-90 756,-96 750,-102 744,-102"/>
<text text-anchor="middle" x="684" y="-62.3" font-family="Times New Roman,serif" font-size="14.00">Step 2</text>
</g>
<!-- XOR_gate_1&#45;&gt;Step 2 -->
<g id="edge8" class="edge">
<title>XOR_gate_1&#45;&gt;Step 2</title>
<path fill="none" stroke="black" d="M468,-119.77C468,-94.4 468,-65 468,-65 468,-65 601.77,-65 601.77,-65"/>
<polygon fill="black" stroke="black" points="601.77,-68.5 611.77,-65 601.77,-61.5 601.77,-68.5"/>
</g>
<!-- Step 3 -->
<g id="node12" class="node">
<title>Step 3</title>
<path fill="none" stroke="black" d="M744,-282C744,-282 624,-282 624,-282 618,-282 612,-276 612,-270 612,-270 612,-222 612,-222 612,-216 618,-210 624,-210 624,-210 744,-210 744,-210 750,-210 756,-216 756,-222 756,-222 756,-270 756,-270 756,-276 750,-282 744,-282"/>
<text text-anchor="middle" x="684" y="-242.3" font-family="Times New Roman,serif" font-size="14.00">Step 3</text>
</g>
<!-- XOR_gate_1&#45;&gt;Step 3 -->
<g id="edge9" class="edge">
<title>XOR_gate_1&#45;&gt;Step 3</title>
<path fill="none" stroke="black" d="M468,-192.2C468,-216.84 468,-245 468,-245 468,-245 601.77,-245 601.77,-245"/>
<polygon fill="black" stroke="black" points="601.77,-248.5 611.77,-245 601.77,-241.5 601.77,-248.5"/>
</g>
<!-- Step 2&#45;&gt;XOR_gate_3 -->
<g id="edge10" class="edge">
<title>Step 2&#45;&gt;XOR_gate_3</title>
<path fill="none" stroke="black" d="M756.23,-86C819.02,-86 900,-86 900,-86 900,-86 900,-109.77 900,-109.77"/>
<polygon fill="black" stroke="black" points="896.5,-109.77 900,-119.77 903.5,-109.77 896.5,-109.77"/>
</g>
<!-- Step 3&#45;&gt;XOR_gate_3 -->
<g id="edge11" class="edge">
<title>Step 3&#45;&gt;XOR_gate_3</title>
<path fill="none" stroke="black" d="M756.23,-225C819.02,-225 900,-225 900,-225 900,-225 900,-202.12 900,-202.12"/>
<polygon fill="black" stroke="black" points="903.5,-202.12 900,-192.12 896.5,-202.12 903.5,-202.12"/>
</g>
<!-- Step 7 -->
<g id="node16" class="node">
<title>Step 7</title>
<path fill="none" stroke="black" d="M2040,-192C2040,-192 1920,-192 1920,-192 1914,-192 1908,-186 1908,-180 1908,-180 1908,-132 1908,-132 1908,-126 1914,-120 1920,-120 1920,-120 2040,-120 2040,-120 2046,-120 2052,-126 2052,-132 2052,-132 2052,-180 2052,-180 2052,-186 2046,-192 2040,-192"/>
<text text-anchor="middle" x="1980" y="-152.3" font-family="Times New Roman,serif" font-size="14.00">Step 7</text>
</g>
<!-- Step 6&#45;&gt;Step 7 -->
<g id="edge15" class="edge">
<title>Step 6&#45;&gt;Step 7</title>
<path fill="none" stroke="black" d="M1836.2,-156C1836.2,-156 1897.8,-156 1897.8,-156"/>
<polygon fill="black" stroke="black" points="1897.8,-159.5 1907.8,-156 1897.8,-152.5 1897.8,-159.5"/>
</g>
<!-- Step 10 -->
<g id="node17" class="node">
<title>Step 10</title>
<path fill="none" stroke="black" d="M2040,-312C2040,-312 1920,-312 1920,-312 1914,-312 1908,-306 1908,-300 1908,-300 1908,-252 1908,-252 1908,-246 1914,-240 1920,-240 1920,-240 2040,-240 2040,-240 2046,-240 2052,-246 2052,-252 2052,-252 2052,-300 2052,-300 2052,-306 2046,-312 2040,-312"/>
<text text-anchor="middle" x="1980" y="-272.3" font-family="Times New Roman,serif" font-size="14.00">Step 10</text>
</g>
<!-- Step 9&#45;&gt;Step 10 -->
<g id="edge16" class="edge">
<title>Step 9&#45;&gt;Step 10</title>
<path fill="none" stroke="black" d="M1836.2,-276C1836.2,-276 1897.8,-276 1897.8,-276"/>
<polygon fill="black" stroke="black" points="1897.8,-279.5 1907.8,-276 1897.8,-272.5 1897.8,-279.5"/>
</g>
<!-- Step 11&#45;&gt;XOR_gate_4 -->
<g id="edge17" class="edge">
<title>Step 11&#45;&gt;XOR_gate_4</title>
<path fill="none" stroke="black" d="M1836.3,-36C1959.3,-36 2196,-36 2196,-36 2196,-36 2196,-110 2196,-110"/>
<polygon fill="black" stroke="black" points="2192.5,-110 2196,-120 2199.5,-110 2192.5,-110"/>
</g>
<!-- Step 7&#45;&gt;XOR_gate_4 -->
<g id="edge18" class="edge">
<title>Step 7&#45;&gt;XOR_gate_4</title>
<path fill="none" stroke="black" d="M2052.2,-156C2052.2,-156 2150.8,-156 2150.8,-156"/>
<polygon fill="black" stroke="black" points="2150.8,-159.5 2160.8,-156 2150.8,-152.5 2150.8,-159.5"/>
</g>
<!-- Step 10&#45;&gt;XOR_gate_4 -->
<g id="edge19" class="edge">
<title>Step 10&#45;&gt;XOR_gate_4</title>
<path fill="none" stroke="black" d="M2052.2,-276C2115,-276 2196,-276 2196,-276 2196,-276 2196,-202 2196,-202"/>
<polygon fill="black" stroke="black" points="2199.5,-202 2196,-192 2192.5,-202 2199.5,-202"/>
</g>
</g>
</svg>
