<?xml version="1.0" encoding="UTF-8" standalone="no"?>
<!DOCTYPE svg PUBLIC "-//W3C//DTD SVG 1.1//EN"
 "http://www.w3.org/Graphics/SVG/1.1/DTD/svg11.dtd">
<!-- Generated by graphviz version 2.46.0 (20210118.1747)
 -->
<!-- Pages: 1 -->
<svg width="2024pt" height="245pt"
 viewBox="0.00 0.00 2024.00 245.00" xmlns="http://www.w3.org/2000/svg" xmlns:xlink="http://www.w3.org/1999/xlink">
<g id="graph0" class="graph" transform="scale(1 1) rotate(0) translate(4 241)">
<polygon fill="white" stroke="transparent" points="-4,4 -4,-241 2020,-241 2020,4 -4,4"/>
<!-- Start -->
<g id="node1" class="node">
<title>Start</title>
<ellipse fill="none" stroke="black" cx="36" cy="-126" rx="36" ry="36"/>
<text text-anchor="middle" x="36" y="-122.3" font-family="Times New Roman,serif" font-size="14.00">Start</text>
</g>
<!-- Step 1 -->
<g id="node2" class="node">
<title>Step 1</title>
<path fill="none" stroke="black" d="M312,-162C312,-162 192,-162 192,-162 186,-162 180,-156 180,-150 180,-150 180,-102 180,-102 180,-96 186,-90 192,-90 192,-90 312,-90 312,-90 318,-90 324,-96 324,-102 324,-102 324,-150 324,-150 324,-156 318,-162 312,-162"/>
<text text-anchor="middle" x="252" y="-122.3" font-family="Times New Roman,serif" font-size="14.00">Step 1</text>
</g>
<!-- Start&#45;&gt;Step 1 -->
<g id="edge1" class="edge">
<title>Start&#45;&gt;Step 1</title>
<path fill="none" stroke="black" d="M72.15,-126C72.15,-126 169.85,-126 169.85,-126"/>
<polygon fill="black" stroke="black" points="169.85,-129.5 179.85,-126 169.85,-122.5 169.85,-129.5"/>
</g>
<!-- XOR_gate_1 -->
<g id="node3" class="node">
<title>XOR_gate_1</title>
<polygon fill="none" stroke="black" points="468,-162 432.86,-126 468,-90 503.14,-126 468,-162"/>
<text text-anchor="middle" x="468" y="-122.3" font-family="Times New Roman,serif" font-size="14.00">XOR</text>
</g>
<!-- Step 1&#45;&gt;XOR_gate_1 -->
<g id="edge2" class="edge">
<title>Step 1&#45;&gt;XOR_gate_1</title>
<path fill="none" stroke="black" d="M324.23,-126C324.23,-126 422.8,-126 422.8,-126"/>
<polygon fill="black" stroke="black" points="422.8,-129.5 432.8,-126 422.8,-122.5 422.8,-129.5"/>
</g>
<!-- Step 2 -->
<g id="node4" class="node">
<title>Step 2</title>
<path fill="none" stroke="black" d="M744,-72C744,-72 624,-72 624,-72 618,-72 612,-66 612,-60 612,-60 612,-12 612,-12 612,-6 618,0 624,0 624,0 744,0 744,0 750,0 756,-6 756,-12 756,-12 756,-60 756,-60 756,-66 750,-72 744,-72"/>
<text text-anchor="middle" x="684" y="-32.3" font-family="Times New Roman,serif" font-size="14.00">Step 2</text>
</g>
<!-- XOR_gate_1&#45;&gt;Step 2 -->
<g id="edge3" class="edge">
<title>XOR_gate_1&#45;&gt;Step 2</title>
<path fill="none" stroke="black" d="M468,-89.91C468,-64.87 468,-36 468,-36 468,-36 601.77,-36 601.77,-36"/>
<polygon fill="black" stroke="black" points="601.77,-39.5 611.77,-36 601.77,-32.5 601.77,-39.5"/>
</g>
<!-- Step 5 -->
<g id="node5" class="node">
<title>Step 5</title>
<path fill="none" stroke="black" d="M960,-117C960,-117 840,-117 840,-117 834,-117 828,-111 828,-105 828,-105 828,-57 828,-57 828,-51 834,-45 840,-45 840,-45 960,-45 960,-45 966,-45 972,-51 972,-57 972,-57 972,-105 972,-105 972,-111 966,-117 960,-117"/>
<text text-anchor="middle" x="900" y="-77.3" font-family="Times New Roman,serif" font-size="14.00">Step 5</text>
</g>
<!-- XOR_gate_1&#45;&gt;Step 5 -->
<g id="edge4" class="edge">
<title>XOR_gate_1&#45;&gt;Step 5</title>
<path fill="none" stroke="black" d="M480.93,-103C480.93,-103 817.57,-103 817.57,-103"/>
<polygon fill="black" stroke="black" points="817.57,-106.5 827.57,-103 817.57,-99.5 817.57,-106.5"/>
</g>
<!-- Step 2&#45;&gt;Step 5 -->
<g id="edge5" class="edge">
<title>Step 2&#45;&gt;Step 5</title>
<path fill="none" stroke="black" d="M756.23,-58C756.23,-58 817.84,-58 817.84,-58"/>
<polygon fill="black" stroke="black" points="817.84,-61.5 827.84,-58 817.84,-54.5 817.84,-61.5"/>
</g>
<!-- AND_gate_2 -->
<g id="node6" class="node">
<title>AND_gate_2</title>
<polygon fill="none" stroke="black" points="1116,-117 1081.5,-81 1116,-45 1150.5,-81 1116,-117"/>
<text text-anchor="middle" x="1116" y="-77.3" font-family="Times New Roman,serif" font-size="14.00">AND</text>
</g>
<!-- Step 5&#45;&gt;AND_gate_2 -->
<g id="edge6" class="edge">
<title>Step 5&#45;&gt;AND_gate_2</title>
<path fill="none" stroke="black" d="M900,-117.07C900,-128.87 900,-139 900,-139 900,-139 1104.6,-139 1104.6,-139 1104.6,-139 1104.6,-115.26 1104.6,-115.26"/>
<polygon fill="black" stroke="black" points="1108.1,-115.26 1104.6,-105.26 1101.1,-115.26 1108.1,-115.26"/>
</g>
<!-- Step 8 -->
<g id="node7" class="node">
<title>Step 8</title>
<path fill="none" stroke="black" d="M1824,-147C1824,-147 1704,-147 1704,-147 1698,-147 1692,-141 1692,-135 1692,-135 1692,-87 1692,-87 1692,-81 1698,-75 1704,-75 1704,-75 1824,-75 1824,-75 1830,-75 1836,-81 1836,-87 1836,-87 1836,-135 1836,-135 1836,-141 1830,-147 1824,-147"/>
<text text-anchor="middle" x="1764" y="-107.3" font-family="Times New Roman,serif" font-size="14.00">Step 8</text>
</g>
<!-- AND_gate_2&#45;&gt;Step 8 -->
<g id="edge7" class="edge">
<title>AND_gate_2&#45;&gt;Step 8</title>
<path fill="none" stroke="black" d="M1141.8,-90C1141.8,-90 1681.9,-90 1681.9,-90"/>
<polygon fill="black" stroke="black" points="1681.9,-93.5 1691.9,-90 1681.9,-86.5 1681.9,-93.5"/>
</g>
<!-- Step 9 -->
<g id="node8" class="node">
<title>Step 9</title>
<path fill="none" stroke="black" d="M1392,-237C1392,-237 1272,-237 1272,-237 1266,-237 1260,-231 1260,-225 1260,-225 1260,-177 1260,-177 1260,-171 1266,-165 1272,-165 1272,-165 1392,-165 1392,-165 1398,-165 1404,-171 1404,-177 1404,-177 1404,-225 1404,-225 1404,-231 1398,-237 1392,-237"/>
<text text-anchor="middle" x="1332" y="-197.3" font-family="Times New Roman,serif" font-size="14.00">Step 9</text>
</g>
<!-- AND_gate_2&#45;&gt;Step 9 -->
<g id="edge8" class="edge">
<title>AND_gate_2&#45;&gt;Step 9</title>
<path fill="none" stroke="black" d="M1127.4,-105C1127.4,-140.01 1127.4,-201 1127.4,-201 1127.4,-201 1249.9,-201 1249.9,-201"/>
<polygon fill="black" stroke="black" points="1249.9,-204.5 1259.9,-201 1249.9,-197.5 1249.9,-204.5"/>
</g>
<!-- Step 10 -->
<g id="node9" class="node">
<title>Step 10</title>
<path fill="none" stroke="black" d="M1608,-177C1608,-177 1488,-177 1488,-177 1482,-177 1476,-171 1476,-165 1476,-165 1476,-117 1476,-117 1476,-111 1482,-105 1488,-105 1488,-105 1608,-105 1608,-105 1614,-105 1620,-111 1620,-117 1620,-117 1620,-165 1620,-165 1620,-171 1614,-177 1608,-177"/>
<text text-anchor="middle" x="1548" y="-137.3" font-family="Times New Roman,serif" font-size="14.00">Step 10</text>
</g>
<!-- AND_gate_2&#45;&gt;Step 10 -->
<g id="edge9" class="edge">
<title>AND_gate_2&#45;&gt;Step 10</title>
<path fill="none" stroke="black" d="M1121.8,-111C1121.8,-111 1465.9,-111 1465.9,-111"/>
<polygon fill="black" stroke="black" points="1465.9,-114.5 1475.9,-111 1465.9,-107.5 1465.9,-114.5"/>
</g>
<!-- End -->
<g id="node10" class="node">
<title>End</title>
<ellipse fill="none" stroke="black" cx="1980" cy="-111" rx="36" ry="36"/>
<text text-anchor="middle" x="1980" y="-107.3" font-family="Times New Roman,serif" font-size="14.00">End</text>
</g>
<!-- Step 8&#45;&gt;End -->
<g id="edge10" class="edge">
<title>Step 8&#45;&gt;End</title>
<path fill="none" stroke="black" d="M1836.2,-111C1836.2,-111 1933.9,-111 1933.9,-111"/>
<polygon fill="black" stroke="black" points="1933.9,-114.5 1943.9,-111 1933.9,-107.5 1933.9,-114.5"/>
</g>
<!-- Step 9&#45;&gt;Step 10 -->
<g id="edge11" class="edge">
<title>Step 9&#45;&gt;Step 10</title>
<path fill="none" stroke="black" d="M1404.2,-171C1404.2,-171 1465.8,-171 1465.8,-171"/>
<polygon fill="black" stroke="black" points="1465.8,-174.5 1475.8,-171 1465.8,-167.5 1465.8,-174.5"/>
</g>
<!-- Step 10&#45;&gt;Step 8 -->
<g id="edge12" class="edge">
<title>Step 10&#45;&gt;Step 8</title>
<path fill="none" stroke="black" d="M1620.2,-126C1620.2,-126 1681.8,-126 1681.8,-126"/>
<polygon fill="black" stroke="black" points="1681.8,-129.5 1691.8,-126 1681.8,-122.5 1681.8,-129.5"/>
</g>
</g>
</svg>
