<?xml version="1.0" encoding="UTF-8" standalone="no"?>
<!DOCTYPE svg PUBLIC "-//W3C//DTD SVG 1.1//EN"
 "http://www.w3.org/Graphics/SVG/1.1/DTD/svg11.dtd">
<!-- Generated by graphviz version 2.46.0 (20210118.1747)
 -->
<!-- Pages: 1 -->
<svg width="1592pt" height="218pt"
 viewBox="0.00 0.00 1592.00 218.00" xmlns="http://www.w3.org/2000/svg" xmlns:xlink="http://www.w3.org/1999/xlink">
<g id="graph0" class="graph" transform="scale(1 1) rotate(0) translate(4 214)">
<polygon fill="white" stroke="transparent" points="-4,4 -4,-214 1588,-214 1588,4 -4,4"/>
<!-- Start -->
<g id="node1" class="node">
<title>Start</title>
<ellipse fill="none" stroke="black" cx="36" cy="-54" rx="36" ry="36"/>
<text text-anchor="middle" x="36" y="-50.3" font-family="Times New Roman,serif" font-size="14.00">Start</text>
</g>
<!-- Step 2 -->
<g id="node2" class="node">
<title>Step 2</title>
<path fill="none" stroke="black" d="M312,-90C312,-90 192,-90 192,-90 186,-90 180,-84 180,-78 180,-78 180,-30 180,-30 180,-24 186,-18 192,-18 192,-18 312,-18 312,-18 318,-18 324,-24 324,-30 324,-30 324,-78 324,-78 324,-84 318,-90 312,-90"/>
<text text-anchor="middle" x="252" y="-50.3" font-family="Times New Roman,serif" font-size="14.00">Step 2</text>
</g>
<!-- Start&#45;&gt;Step 2 -->
<g id="edge1" class="edge">
<title>Start&#45;&gt;Step 2</title>
<path fill="none" stroke="black" d="M72.15,-54C72.15,-54 169.85,-54 169.85,-54"/>
<polygon fill="black" stroke="black" points="169.85,-57.5 179.85,-54 169.85,-50.5 169.85,-57.5"/>
</g>
<!-- Step 5 -->
<g id="node3" class="node">
<title>Step 5</title>
<path fill="none" stroke="black" d="M528,-90C528,-90 408,-90 408,-90 402,-90 396,-84 396,-78 396,-78 396,-30 396,-30 396,-24 402,-18 408,-18 408,-18 528,-18 528,-18 534,-18 540,-24 540,-30 540,-30 540,-78 540,-78 540,-84 534,-90 528,-90"/>
<text text-anchor="middle" x="468" y="-50.3" font-family="Times New Roman,serif" font-size="14.00">Step 5</text>
</g>
<!-- Step 2&#45;&gt;Step 5 -->
<g id="edge2" class="edge">
<title>Step 2&#45;&gt;Step 5</title>
<path fill="none" stroke="black" d="M324.23,-54C324.23,-54 385.84,-54 385.84,-54"/>
<polygon fill="black" stroke="black" points="385.84,-57.5 395.84,-54 385.84,-50.5 385.84,-57.5"/>
</g>
<!-- AND_gate_1 -->
<g id="node4" class="node">
<title>AND_gate_1</title>
<polygon fill="none" stroke="black" points="684,-90 649.5,-54 684,-18 718.5,-54 684,-90"/>
<text text-anchor="middle" x="684" y="-50.3" font-family="Times New Roman,serif" font-size="14.00">AND</text>
</g>
<!-- Step 5&#45;&gt;AND_gate_1 -->
<g id="edge3" class="edge">
<title>Step 5&#45;&gt;AND_gate_1</title>
<path fill="none" stroke="black" d="M468,-17.98C468,-8.08 468,0 468,0 468,0 684,0 684,0 684,0 684,-7.98 684,-7.98"/>
<polygon fill="black" stroke="black" points="680.5,-7.98 684,-17.98 687.5,-7.98 680.5,-7.98"/>
</g>
<!-- Step 8 -->
<g id="node5" class="node">
<title>Step 8</title>
<path fill="none" stroke="black" d="M1392,-120C1392,-120 1272,-120 1272,-120 1266,-120 1260,-114 1260,-108 1260,-108 1260,-60 1260,-60 1260,-54 1266,-48 1272,-48 1272,-48 1392,-48 1392,-48 1398,-48 1404,-54 1404,-60 1404,-60 1404,-108 1404,-108 1404,-114 1398,-120 1392,-120"/>
<text text-anchor="middle" x="1332" y="-80.3" font-family="Times New Roman,serif" font-size="14.00">Step 8</text>
</g>
<!-- AND_gate_1&#45;&gt;Step 8 -->
<g id="edge4" class="edge">
<title>AND_gate_1&#45;&gt;Step 8</title>
<path fill="none" stroke="black" d="M710.61,-62C710.61,-62 1249.9,-62 1249.9,-62"/>
<polygon fill="black" stroke="black" points="1249.9,-65.5 1259.9,-62 1249.9,-58.5 1249.9,-65.5"/>
</g>
<!-- Step 9 -->
<g id="node6" class="node">
<title>Step 9</title>
<path fill="none" stroke="black" d="M960,-210C960,-210 840,-210 840,-210 834,-210 828,-204 828,-198 828,-198 828,-150 828,-150 828,-144 834,-138 840,-138 840,-138 960,-138 960,-138 966,-138 972,-144 972,-150 972,-150 972,-198 972,-198 972,-204 966,-210 960,-210"/>
<text text-anchor="middle" x="900" y="-170.3" font-family="Times New Roman,serif" font-size="14.00">Step 9</text>
</g>
<!-- AND_gate_1&#45;&gt;Step 9 -->
<g id="edge5" class="edge">
<title>AND_gate_1&#45;&gt;Step 9</title>
<path fill="none" stroke="black" d="M684,-90.03C684,-125.05 684,-173 684,-173 684,-173 817.77,-173 817.77,-173"/>
<polygon fill="black" stroke="black" points="817.77,-176.5 827.77,-173 817.77,-169.5 817.77,-176.5"/>
</g>
<!-- Step 10 -->
<g id="node7" class="node">
<title>Step 10</title>
<path fill="none" stroke="black" d="M1176,-150C1176,-150 1056,-150 1056,-150 1050,-150 1044,-144 1044,-138 1044,-138 1044,-90 1044,-90 1044,-84 1050,-78 1056,-78 1056,-78 1176,-78 1176,-78 1182,-78 1188,-84 1188,-90 1188,-90 1188,-138 1188,-138 1188,-144 1182,-150 1176,-150"/>
<text text-anchor="middle" x="1116" y="-110.3" font-family="Times New Roman,serif" font-size="14.00">Step 10</text>
</g>
<!-- AND_gate_1&#45;&gt;Step 10 -->
<g id="edge6" class="edge">
<title>AND_gate_1&#45;&gt;Step 10</title>
<path fill="none" stroke="black" d="M690.79,-83C690.79,-83 1033.8,-83 1033.8,-83"/>
<polygon fill="black" stroke="black" points="1033.8,-86.5 1043.8,-83 1033.8,-79.5 1033.8,-86.5"/>
</g>
<!-- End -->
<g id="node8" class="node">
<title>End</title>
<ellipse fill="none" stroke="black" cx="1548" cy="-84" rx="36" ry="36"/>
<text text-anchor="middle" x="1548" y="-80.3" font-family="Times New Roman,serif" font-size="14.00">End</text>
</g>
<!-- Step 8&#45;&gt;End -->
<g id="edge7" class="edge">
<title>Step 8&#45;&gt;End</title>
<path fill="none" stroke="black" d="M1404.2,-83C1404.2,-83 1501.9,-83 1501.9,-83"/>
<polygon fill="black" stroke="black" points="1501.9,-86.5 1511.9,-83 1501.9,-79.5 1501.9,-86.5"/>
</g>
<!-- Step 9&#45;&gt;Step 10 -->
<g id="edge8" class="edge">
<title>Step 9&#45;&gt;Step 10</title>
<path fill="none" stroke="black" d="M972.23,-143C972.23,-143 1033.8,-143 1033.8,-143"/>
<polygon fill="black" stroke="black" points="1033.8,-146.5 1043.8,-143 1033.8,-139.5 1033.8,-146.5"/>
</g>
<!-- Step 10&#45;&gt;Step 8 -->
<g id="edge9" class="edge">
<title>Step 10&#45;&gt;Step 8</title>
<path fill="none" stroke="black" d="M1188.2,-98C1188.2,-98 1249.8,-98 1249.8,-98"/>
<polygon fill="black" stroke="black" points="1249.8,-101.5 1259.8,-98 1249.8,-94.5 1249.8,-101.5"/>
</g>
</g>
</svg>
