<?xml version="1.0" encoding="UTF-8" standalone="no"?>
<!DOCTYPE svg PUBLIC "-//W3C//DTD SVG 1.1//EN"
 "http://www.w3.org/Graphics/SVG/1.1/DTD/svg11.dtd">
<!-- Generated by graphviz version 2.46.0 (20210118.1747)
 -->
<!-- Pages: 1 -->
<svg width="728pt" height="80pt"
 viewBox="0.00 0.00 728.00 80.00" xmlns="http://www.w3.org/2000/svg" xmlns:xlink="http://www.w3.org/1999/xlink">
<g id="graph0" class="graph" transform="scale(1 1) rotate(0) translate(4 76)">
<polygon fill="white" stroke="transparent" points="-4,4 -4,-76 724,-76 724,4 -4,4"/>
<!-- Start -->
<g id="node1" class="node">
<title>Start</title>
<ellipse fill="none" stroke="black" cx="36" cy="-36" rx="36" ry="36"/>
<text text-anchor="middle" x="36" y="-32.3" font-family="Times New Roman,serif" font-size="14.00">Start</text>
</g>
<!-- Step 2 -->
<g id="node2" class="node">
<title>Step 2</title>
<path fill="none" stroke="black" d="M312,-72C312,-72 192,-72 192,-72 186,-72 180,-66 180,-60 180,-60 180,-12 180,-12 180,-6 186,0 192,0 192,0 312,0 312,0 318,0 324,-6 324,-12 324,-12 324,-60 324,-60 324,-66 318,-72 312,-72"/>
<text text-anchor="middle" x="252" y="-32.3" font-family="Times New Roman,serif" font-size="14.00">Step 2</text>
</g>
<!-- Start&#45;&gt;Step 2 -->
<g id="edge1" class="edge">
<title>Start&#45;&gt;Step 2</title>
<path fill="none" stroke="black" d="M72.15,-36C72.15,-36 169.85,-36 169.85,-36"/>
<polygon fill="black" stroke="black" points="169.85,-39.5 179.85,-36 169.85,-32.5 169.85,-39.5"/>
</g>
<!-- Step 5 -->
<g id="node3" class="node">
<title>Step 5</title>
<path fill="none" stroke="black" d="M528,-72C528,-72 408,-72 408,-72 402,-72 396,-66 396,-60 396,-60 396,-12 396,-12 396,-6 402,0 408,0 408,0 528,0 528,0 534,0 540,-6 540,-12 540,-12 540,-60 540,-60 540,-66 534,-72 528,-72"/>
<text text-anchor="middle" x="468" y="-32.3" font-family="Times New Roman,serif" font-size="14.00">Step 5</text>
</g>
<!-- Step 2&#45;&gt;Step 5 -->
<g id="edge2" class="edge">
<title>Step 2&#45;&gt;Step 5</title>
<path fill="none" stroke="black" d="M324.23,-36C324.23,-36 385.84,-36 385.84,-36"/>
<polygon fill="black" stroke="black" points="385.84,-39.5 395.84,-36 385.84,-32.5 385.84,-39.5"/>
</g>
<!-- End -->
<g id="node4" class="node">
<title>End</title>
<ellipse fill="none" stroke="black" cx="684" cy="-36" rx="36" ry="36"/>
<text text-anchor="middle" x="684" y="-32.3" font-family="Times New Roman,serif" font-size="14.00">End</text>
</g>
<!-- Step 5&#45;&gt;End -->
<g id="edge3" class="edge">
<title>Step 5&#45;&gt;End</title>
<path fill="none" stroke="black" d="M540.23,-36C540.23,-36 637.91,-36 637.91,-36"/>
<polygon fill="black" stroke="black" points="637.91,-39.5 647.91,-36 637.91,-32.5 637.91,-39.5"/>
</g>
</g>
</svg>
